<svg xmlns="http://www.w3.org/2000/svg" xmlns:xlink="http://www.w3.org/1999/xlink" viewBox="0 0 662 1317" xmlns:v="https://vecta.io/nano"><style><![CDATA[.B{font-family:MyriadPro-Regular}.C{font-size:24px}.D{fill:#fff}.E{font-size:12px}.F{fill:#0071bc}]]></style><path fill="#ed1c24" d="M620.4 44.5v1218.9H53.5V44.5h566.9m4-4h-4H53.5h-4v4 1218.9 4h4 566.9 4v-4V44.5v-4h0z"/><path d="M258.2 49.7h173.7v375H258.2z" class="D"/><path fill="#006837" d="M431 50.7v373H259.2v-373H431m2-2H257.2v377H433v-377h0z"/><text><tspan x="309.469" y="226.207" class="B C">plateau </tspan><tspan y="255.007" x="309.469" class="B C">roulettes :</tspan><tspan y="283.807" x="309.469" class="B C">tables</tspan><tspan x="135.628" y="873.641" class="B C D">roll :</tspan><tspan y="902.441" x="135.628" class="B C D">EcoCup</tspan></text><path fill="#d9e021" d="M416.9 1010.8h201.7v230H416.9z"/><path d="M618 1011.3v229H417.4v-229H618m1-1H416.4v231H619v-231h0z"/><text transform="matrix(.8671 0 0 1 503.8888 1109.1995)"><tspan x="0" y="0" class="B C">roll</tspan><tspan x="-32.4" y="28.8" class="B C">lave verre</tspan></text><path fill="#ff7bac" d="M57.4 46h190.3v332.1H57.4z"/><path d="M247.2 46.5v331.1H57.9V46.5h189.3m1-1H56.9v333.1h191.3V45.5h0z"/><path fill="#d9e021" d="M416.9 767.8h201.7v230H416.9z"/><path d="M618 768.3v229H417.4v-229H618m1-1H416.4v231H619v-231h0z"/><path d="M443.8 518.4h174.7v231.4H443.8z" class="F"/><path d="M618 518.9v230.4H444.3V518.9H618m1-1H443.3v232.4H619V517.9h0z"/><path d="M442.8 283.8h174.7v230H442.8z" class="F"/><path d="M617 284.3v229H443.3v-229H617m1-1H442.3v231H618v-231h0z"/><path d="M439.3 46.9H615v232.4H439.3z" class="F"/><text transform="translate(476.628 882.64)" class="B C">boisson</text><text><tspan x="65.885" y="184.133" class="B C">roll :</tspan><tspan y="212.933" x="65.885" class="B C">+ passages cables</tspan><tspan y="241.733" x="65.885" class="B C">+ cables</tspan></text><path fill="#ff7bac" d="M57.4 379h190.3v332.1H57.4z"/><path d="M247.2 379.5v331.1H57.9V379.5h189.3m1-1H56.9v333.1h191.3V378.5h0z"/><text><tspan x="78.885" y="483.045" class="B C">roll :</tspan><tspan y="511.845" x="78.885" class="B C">+ extincteurs</tspan><tspan y="540.645" x="78.885" class="B C">+ toiles barnum</tspan><tspan y="569.445" x="78.885" class="B C">+ malettes</tspan><tspan y="598.245" x="78.885" class="B C">+ signaletique</tspan><tspan y="627.045" x="78.885" class="B C">+ divers</tspan></text><path fill="#22b573" d="M64 771.2h332.1v221.5H64z"/><path d="M395.6 771.7v220.5H64.5V771.7h331.1m1-1H63.5v222.5h333.1V770.7h0z"/><path d="M194 917.8h98.2v69.9H194z" class="D"/><use xlink:href="#B"/><path d="M293 917.8h98.2v69.9H293z" class="D"/><use xlink:href="#B" x="99"/><path d="M194 846.8h98.2v69.9H194z" class="D"/><use xlink:href="#B" y="-71"/><path d="M293 846.8h98.2v69.9H293z" class="D"/><use xlink:href="#B" x="99" y="-71"/><path d="M194 775.8h98.2v69.9H194z" class="D"/><use xlink:href="#B" y="-142"/><path d="M293 775.8h98.2v69.9H293z" class="D"/><use xlink:href="#B" x="99" y="-142"/><path d="M94 917.8h98.2v69.9H94z" class="D"/><path d="M191.7 918.3v68.9H94.5v-68.9h97.2m1-1H93.5v70.9h99.2v-70.9h0z"/><path d="M94 846.8h98.2v69.9H94z" class="D"/><path d="M191.7 847.3v68.9H94.5v-68.9h97.2m1-1H93.5v70.9h99.2v-70.9h0z"/><path d="M120.5 774.4h69.9v69.9h-69.9z" class="D"/><path d="M189.9 774.9v68.9H121v-68.9h68.9m1-1H120v70.9h70.9v-70.9h0z"/><text transform="matrix(0 1 -1 0 231.4883 849.8709)" class="B C">tentes</text><text><tspan x="485.469" y="163.207" class="B C D">plateau </tspan><tspan y="192.007" x="485.469" class="B C D">ecocup</tspan><tspan x="485.469" y="399.207" class="B C D">plateau </tspan><tspan y="428.007" x="485.469" class="B C D">ecocup</tspan><tspan x="485.469" y="621.207" class="B C D">plateau </tspan><tspan y="650.007" x="485.469" class="B C D">ecocup</tspan></text><path fill="#f7931e" d="M63.2 1022.3h337.7v227.2H63.2z"/><path d="M400.4 1022.8V1249H63.7v-226.2h336.7m1-1H62.7V1250h338.7v-228.2h0z"/><text><tspan x="191.674" y="1117.086" class="B C">Grand</tspan><tspan x="203.874" y="1145.886" class="B C"> roll</tspan></text><path d="M260.3 436.8h169.1v282.5H260.3z" class="D"/><path d="M428.9 437.3v281.5H260.8V437.3h168.1m1-1H259.8v283.5h170.1V436.3h0z"/><text transform="translate(309.628 648.129)" class="B C">bureau</text><text transform="matrix(.8671 0 0 1 498.9152 846.1995)" class="B C">roll</text><text transform="translate(79.404 1042.137)" class="B E">119,5 x 80,5</text><text transform="translate(70.404 788.137)" class="B E">119,5 x 80,5</text><text transform="translate(426.404 1030.137)" class="B E">81,5 x 71,5</text><text transform="translate(426.404 788.137)" class="B E">81,5 x 71,5</text><text transform="translate(455.404 539.137)" class="B E">82 x 62</text><text transform="translate(452.404 304.137)" class="B E">82 x 62</text><text transform="translate(452.404 67.137)" class="B E">82 x 62</text><text transform="translate(65.404 67.137)" class="B E">117,5 x 67,5</text><text transform="translate(70.404 399.137)" class="B E">117,5 x 67,5</text><text transform="translate(273.404 706.137)" class="B E">100 x 60</text><text transform="translate(280.404 467.137)" class="B E">62 x 54</text><text transform="translate(273.404 73.137)" class="B E">133 x 62</text><text transform="translate(41.404 27.137)" class="B C">22m3 hayon : dimensions intérieurs utiles L430 x l200 x h225</text><defs ><path id="B" d="M291.7 918.3v68.9h-97.2v-68.9h97.2m1-1h-99.2v70.9h99.2v-70.9h0z"/></defs></svg>