<?xml version="1.0" encoding="utf-8"?>
<!-- Generator: Adobe Illustrator 21.0.0, SVG Export Plug-In . SVG Version: 6.00 Build 0)  -->
<svg version="1.1" id="Calque_1" xmlns="http://www.w3.org/2000/svg" xmlns:xlink="http://www.w3.org/1999/xlink" x="0px" y="0px"
	 viewBox="0 0 250 280" style="enable-background:new 0 0 250 280;" xml:space="preserve">
<style type="text/css">
	.st0{fill:#FFFFFF;}
</style>
<g>
	<path class="st0" d="M246,15.6c-0.5-3.2-17.9-21.4-47-13.7c-29.1,7.6-10.6,32.2-9,35.4c1.7,3.2,13.7-0.9,11.4-6.8
		c-2.2-5.9-10.8-0.1-10.8-0.1c-6.1-11.2-3.5-35.6,39.5-19.7c25.4,9.3,10.2,36.7-6.6,57.6c-8.9,1-19.2,0.3-35.3-4.2
		c-16.6-4.7-39.5-13.5-73.6-28.9c-34.2-15.4-62.8,1.4-83,22C11.6,77.8,0,102.3,0,102.3s4-2,8.7-4.3s10.2-4.8,13.3-6
		c3-1.1,24.7,7.4,50.5,16.5s55.7,18.8,75.2,19.9c19.5,1.1,43.3-14.5,59.9-30.1c7.9-7.4,14.2-14.8,17.6-20.5
		C263,35.9,246.5,18.7,246,15.6z M64,71.3c-1.2,1.1-2.9,1.8-4.8,1.8c-1.9,0-3.6-0.7-4.9-1.8c-1.2-1.1-2-2.6-2-4.2
		c0-1.7,0.8-3.1,2-4.2s3-1.8,4.9-1.8s3.6,0.7,4.8,1.8c1.2,1.1,2,2.6,2,4.2C66,68.7,65.3,70.2,64,71.3z"/>
	<path class="st0" d="M123.2,124.3v156.4c0,0.4,0.8,0.6,1.8,0.6s1.8-45.5,1.8-45.8V125.2C125.7,124.9,124.4,124.6,123.2,124.3z"/>
	<path class="st0" d="M142.2,128v152.8c0,0.4,0.8,0.6,1.8,0.6s1.8-0.3,1.8-0.6V128.3C144.7,128.2,143.5,128.1,142.2,128z"/>
</g>
</svg>
