<?xml version="1.0" encoding="utf-8"?>
<!-- Generator: Adobe Illustrator 21.0.0, SVG Export Plug-In . SVG Version: 6.00 Build 0)  -->
<svg version="1.1" xmlns="http://www.w3.org/2000/svg" xmlns:xlink="http://www.w3.org/1999/xlink" x="0px" y="0px"
	 viewBox="0 0 1093.5 471.7" enable-background="new 0 0 1093.5 471.7" xml:space="preserve">
<g id="Calque_3">
	
		<image overflow="visible" width="3651" height="1575" xlink:href="GE_GJT_elec.png"  transform="matrix(0.2995 0 0 0.2995 0 0)">
	</image>
	<rect x="631.2" y="81.9" opacity="0.6" fill="#FFFFFF" width="271.8" height="33.4"/>
	<rect x="723" y="115.9" opacity="0.6" fill="#FFFFFF" width="180" height="33.4"/>
	<rect x="132" y="132" opacity="0.6" fill="#FFFFFF" width="12.7" height="23.7"/>
	<rect x="1027.2" y="141.7" opacity="0.6" fill="#FFFFFF" width="30.7" height="25.6"/>
</g>
<g id="Calque_1">
	<g>
		
			<rect x="849.1" y="98.6" transform="matrix(-0.2742 0.9617 -0.9617 -0.2742 1186.8364 -689.4931)" fill="none" stroke="#0015FF" stroke-width="0.864" stroke-miterlimit="10" width="9" height="9"/>
		<g>
			<path fill="#0015FF" d="M852.5,105.3c0.7,0.2,1.6,0.4,2.2,0.5l0,0c-0.5-0.3-1.1-0.7-1.7-1.2l-2.2-1.6l0.1-0.5l2.6-0.1
				c0.8,0,1.5-0.1,2.1,0l0,0c-0.6-0.2-1.5-0.5-2.2-0.7l-2.1-0.8l0.2-0.6l4.9,1.8l-0.2,0.8l-2.7,0.2c-0.7,0-1.3,0-1.8,0l0,0
				c0.5,0.3,1,0.6,1.5,1l2.2,1.6l-0.2,0.8l-5.1-1.1l0.2-0.6L852.5,105.3z"/>
		</g>
	</g>
	<g>
		
			<rect x="696.5" y="93.5" transform="matrix(-0.2594 0.9658 -0.9658 -0.2594 977.5053 -553.6548)" fill="none" stroke="#0015FF" stroke-width="0.864" stroke-miterlimit="10" width="9" height="9"/>
		<g>
			<path fill="#0015FF" d="M700,100.2c0.7,0.2,1.6,0.3,2.2,0.5l0,0c-0.5-0.3-1.1-0.7-1.8-1.2l-2.2-1.6l0.1-0.5l2.6-0.2
				c0.8,0,1.5-0.1,2.1-0.1l0,0c-0.6-0.2-1.5-0.5-2.2-0.7l-2.1-0.7l0.2-0.6l5,1.7l-0.2,0.8l-2.7,0.2c-0.7,0-1.3,0.1-1.8,0.1l0,0
				c0.5,0.3,1,0.6,1.6,1l2.2,1.6l-0.2,0.8l-5.2-1l0.2-0.6L700,100.2z"/>
		</g>
	</g>
	<g>
		<path fill="#0015FF" d="M725.6,69.4l-2.9-0.8l-0.8,1.9c0.2,0,0.3,0,0.6,0.1c0.6,0.2,1.1,0.4,1.5,0.8c0.5,0.5,0.8,1.3,0.6,2.2
			c-0.4,1.5-1.9,2.3-3.5,1.8c-0.8-0.2-1.5-0.6-1.8-1l0.5-0.7c0.3,0.3,0.8,0.7,1.5,0.8c1,0.3,2-0.2,2.2-1.2c0.2-1-0.2-1.8-1.7-2.2
			c-0.4-0.1-0.8-0.2-1.1-0.2l1.5-3.5l3.6,1L725.6,69.4z"/>
		<path fill="#0015FF" d="M726.7,72.4c0.2-0.6,0.3-1.1,0.4-1.5l0.9,0.2l-0.2,0.9l0,0c0.5-0.4,1.1-0.8,2-0.6c0.8,0.2,1.2,0.8,1.3,1.5
			l0,0c0.3-0.3,0.5-0.5,0.8-0.6c0.4-0.2,0.8-0.2,1.3-0.1c0.7,0.2,1.7,1,1.2,2.9l-0.9,3.3l-1-0.3l0.8-3.2c0.3-1.1,0.1-1.8-0.8-2.1
			c-0.6-0.2-1.1,0.2-1.5,0.6c-0.1,0.1-0.2,0.3-0.2,0.5l-0.9,3.5l-1-0.3l0.9-3.4c0.2-0.9,0-1.6-0.8-1.9c-0.6-0.2-1.2,0.2-1.5,0.7
			c-0.1,0.1-0.2,0.3-0.2,0.5l-0.9,3.4l-1-0.3L726.7,72.4z"/>
		<path fill="#0015FF" d="M720.2,77.7l-0.4,1.6l1.5,0.4l-0.2,0.8l-1.5-0.4l-0.8,3c-0.2,0.7-0.1,1.1,0.5,1.3c0.3,0.1,0.5,0.1,0.6,0.1
			l-0.2,0.8c-0.2,0-0.5,0-0.9-0.1c-0.5-0.1-0.8-0.4-1-0.7c-0.2-0.4-0.2-0.9,0-1.6l0.8-3.1l-0.9-0.2l0.2-0.8l0.9,0.2l0.4-1.3
			L720.2,77.7z"/>
		<path fill="#0015FF" d="M721.9,81.7c0.2-0.7,0.3-1.2,0.4-1.8l0.9,0.2l-0.3,1.1l0,0c0.5-0.7,1.2-1,1.9-0.8c0.1,0,0.2,0.1,0.3,0.1
			l-0.3,1c-0.1-0.1-0.2-0.1-0.3-0.1c-0.7-0.2-1.4,0.2-1.7,0.9c-0.1,0.1-0.1,0.3-0.2,0.5l-0.8,3l-1-0.3L721.9,81.7z"/>
		<path fill="#0015FF" d="M724.7,86.6l1.5-5.6l1,0.3l-1.5,5.6L724.7,86.6z M727.8,79.7c-0.1,0.4-0.4,0.6-0.8,0.5
			c-0.4-0.1-0.5-0.4-0.4-0.8c0.1-0.4,0.4-0.6,0.8-0.5C727.7,79,727.9,79.4,727.8,79.7z"/>
		<path fill="#0015FF" d="M731.1,81.3L731.1,81.3l-1.5,0.4l0-0.8l1.9-0.4l0.9,0.2l-2,7.5l-1-0.3L731.1,81.3z"/>
		<path fill="#0015FF" d="M739.2,83.2c-0.2-0.1-0.5-0.1-0.8-0.2c-1.7-0.2-2.8,0.8-3.3,2l0,0c0.5-0.4,1.2-0.6,2.1-0.4
			c1.3,0.4,2,1.6,1.6,3c-0.4,1.4-1.6,2.4-3.2,2c-1.6-0.4-2.3-2-1.8-3.9c0.4-1.5,1.2-2.5,2.2-3.1c0.8-0.4,1.7-0.6,2.7-0.5
			c0.3,0,0.6,0.1,0.8,0.1L739.2,83.2z M737.7,87.4c0.3-1.1-0.2-1.9-1.1-2.1c-0.6-0.2-1.3,0.1-1.7,0.5c-0.1,0.1-0.2,0.2-0.2,0.4
			c-0.3,1.2,0,2.3,1.1,2.6C736.7,89.1,737.5,88.5,737.7,87.4z"/>
		<path fill="#0015FF" d="M741.3,88.4l-1.5,2.2l-1-0.3l4.7-7.1l1.2,0.3l0.6,8.5l-1.1-0.3l-0.2-2.7L741.3,88.4z M744.1,88.3l-0.2-2.5
			c0-0.6,0-1.1,0-1.5l0,0c-0.2,0.4-0.5,0.9-0.8,1.3l-1.4,2.1L744.1,88.3z"/>
	</g>
	<g>
		<g>
			
				<line fill="none" stroke="#0015FF" stroke-width="2" stroke-miterlimit="10" stroke-dasharray="4,4" x1="743.2" y1="97.7" x2="706.4" y2="97.9"/>
			<g>
				<polygon fill="#0015FF" points="741,94.8 742.3,97.7 741,100.7 748,97.7 				"/>
			</g>
		</g>
	</g>
	<g>
		<g>
			
				<line fill="none" stroke="#1AD0FE" stroke-width="1.5" stroke-miterlimit="10" stroke-dasharray="3,3" x1="653" y1="79.8" x2="716.5" y2="145.9"/>
			<g>
				<polygon fill="#1AD0FE" points="652.6,82.5 653.5,80.3 655.8,79.4 650.5,77.2 				"/>
			</g>
			<g>
				
					<ellipse transform="matrix(0.7215 -0.6924 0.6924 0.7215 98.5565 536.7206)" fill="#1AD0FE" cx="716.5" cy="145.8" rx="1.1" ry="1.1"/>
			</g>
		</g>
	</g>
	<g>
		<path fill="#BC8236" d="M641.3,53.6l1,0.3l-2.3,8.2l-1-0.3L641.3,53.6z"/>
		<path fill="#BC8236" d="M644.8,63.4l0.1-0.7l0,0c-0.4,0.3-1.1,0.6-1.9,0.3c-1.1-0.3-1.5-1.3-1.2-2.1c0.4-1.3,1.8-1.7,3.9-1.1
			l0-0.1c0.1-0.5,0.2-1.3-0.9-1.7c-0.5-0.1-1.1-0.1-1.6,0l0-0.7c0.5-0.2,1.3-0.2,2,0c1.7,0.5,1.8,1.8,1.5,2.9l-0.6,2.1
			c-0.1,0.5-0.2,1-0.3,1.4L644.8,63.4z M645.5,60.5c-1.1-0.3-2.4-0.5-2.7,0.6c-0.2,0.7,0.2,1.1,0.7,1.2c0.7,0.2,1.3-0.1,1.6-0.5
			c0.1-0.1,0.1-0.2,0.1-0.3L645.5,60.5z"/>
		<path fill="#BC8236" d="M649.2,58.6l0.2,3.4c0,0.6,0.1,1.1,0,1.6l0,0c0.3-0.4,0.6-0.8,0.9-1.3l2-2.8l1.1,0.3l-3.8,5l-1-0.3
			l-0.5-6.2L649.2,58.6z"/>
		<path fill="#BC8236" d="M653.9,63.2c-0.4,1.4,0.3,2.2,1.4,2.5c0.7,0.2,1.2,0.2,1.6,0.2l0,0.8c-0.4,0.1-1.1,0.1-2-0.2
			c-1.7-0.5-2.4-1.9-1.9-3.6c0.5-1.7,1.9-2.7,3.5-2.3c1.8,0.5,1.8,2.3,1.6,3.3c-0.1,0.2-0.1,0.4-0.2,0.5L653.9,63.2z M657.1,63.3
			c0.2-0.6,0.2-1.7-0.9-2c-1-0.3-1.7,0.5-2,1.2L657.1,63.3z"/>
		<path fill="#BC8236" d="M662.8,62.5L663,66c0,0.6,0.1,1.1,0,1.6l0,0c0.3-0.4,0.6-0.8,0.9-1.3l2-2.8l1.1,0.3l-3.8,5l-1-0.3
			l-0.5-6.2L662.8,62.5z"/>
		<path fill="#BC8236" d="M667.6,67.1c-0.4,1.4,0.3,2.2,1.4,2.5c0.7,0.2,1.2,0.2,1.6,0.2l0,0.8c-0.4,0.1-1.1,0.1-2-0.2
			c-1.7-0.5-2.4-1.9-1.9-3.6c0.5-1.7,1.9-2.7,3.5-2.3c1.8,0.5,1.8,2.3,1.6,3.3c-0.1,0.2-0.1,0.4-0.2,0.5L667.6,67.1z M670.8,67.2
			c0.2-0.6,0.2-1.7-0.9-2c-1-0.3-1.7,0.5-2,1.2L670.8,67.2z"/>
		<path fill="#BC8236" d="M673.1,67.4c0.2-0.7,0.3-1.2,0.4-1.8l0.9,0.3l-0.3,1.1l0,0c0.5-0.7,1.2-1,1.9-0.8c0.1,0,0.2,0.1,0.3,0.1
			l-0.3,1c-0.1-0.1-0.2-0.1-0.3-0.1c-0.7-0.2-1.4,0.2-1.7,0.9c-0.1,0.1-0.1,0.3-0.2,0.5l-0.8,3l-1-0.3L673.1,67.4z"/>
		<path fill="#BC8236" d="M677,68.5c0.2-0.7,0.3-1.2,0.4-1.8l0.9,0.3l-0.3,1.1l0,0c0.5-0.7,1.2-1,1.9-0.8c0.1,0,0.2,0.1,0.3,0.1
			l-0.3,1c-0.1-0.1-0.2-0.1-0.3-0.1c-0.7-0.2-1.4,0.2-1.7,0.9c-0.1,0.1-0.1,0.3-0.2,0.5l-0.8,3l-1-0.3L677,68.5z"/>
		<path fill="#BC8236" d="M680.8,70.9c-0.4,1.4,0.3,2.2,1.4,2.5c0.7,0.2,1.2,0.2,1.6,0.2l0,0.8c-0.4,0.1-1.1,0.1-2-0.2
			c-1.7-0.5-2.4-1.9-1.9-3.6s1.8-2.7,3.5-2.3c1.8,0.5,1.8,2.3,1.6,3.3c-0.1,0.2-0.1,0.4-0.2,0.5L680.8,70.9z M684,71
			c0.2-0.6,0.2-1.7-0.9-2c-1-0.3-1.7,0.5-2,1.2L684,71z"/>
		<path fill="#BC8236" d="M637.3,68c0.5,0.1,1.2,0.2,2,0.4c1,0.3,1.7,0.7,2,1.3c0.3,0.5,0.4,1.1,0.2,1.8c-0.2,0.7-0.6,1.2-1.1,1.5
			c-0.7,0.4-1.6,0.5-2.6,0.2c-0.3-0.1-0.6-0.2-0.8-0.3l-0.9,3.1l-1-0.3L637.3,68z M637.2,72c0.2,0.1,0.5,0.2,0.8,0.3
			c1.2,0.3,2.1,0,2.4-1.1c0.3-1-0.3-1.7-1.4-2c-0.4-0.1-0.8-0.2-1-0.2L637.2,72z"/>
		<path fill="#BC8236" d="M641.4,76.2c0.2,0.3,0.8,0.7,1.5,0.9c1.3,0.4,1.9-0.3,2.1-1c0.3-1.1-0.5-1.8-1.5-2.1L643,74l0.2-0.8
			l0.6,0.2c0.7,0.2,1.8,0.1,2-0.8c0.2-0.6-0.1-1.2-1-1.5c-0.6-0.2-1.3-0.1-1.6,0.1l-0.1-0.8c0.5-0.2,1.3-0.2,2.1,0
			c1.5,0.4,1.9,1.5,1.6,2.4c-0.2,0.8-0.9,1.3-1.9,1.4l0,0c0.9,0.4,1.4,1.4,1.1,2.4c-0.3,1.2-1.6,2-3.4,1.5c-0.8-0.2-1.5-0.7-1.8-1.1
			L641.4,76.2z"/>
	</g>
	<g>
		<g>
			
				<line fill="none" stroke="#0015FF" stroke-width="2" stroke-miterlimit="10" stroke-dasharray="4,4" x1="702.9" y1="108.8" x2="717.3" y2="152.9"/>
			<g>
				<polygon fill="#0015FF" points="700.8,111.8 703.2,109.7 706.4,110 701.4,104.2 				"/>
			</g>
		</g>
	</g>
	<g>
		<path fill="#0015FF" d="M720.2,114.5L720.2,114.5l-1.5,0.4l0-0.8l1.9-0.4l0.9,0.2l-2,7.5l-1-0.3L720.2,114.5z"/>
		<path fill="#0015FF" d="M728.2,119.5c-0.7,2.6-2,3.7-3.7,3.3c-1.5-0.4-2.1-2-1.5-4.5c0.7-2.5,2.1-3.6,3.7-3.2
			C728.3,115.5,728.9,117.1,728.2,119.5z M724.1,118.6c-0.5,2-0.2,3.2,0.7,3.5c1,0.3,1.9-0.8,2.4-2.7c0.5-1.9,0.3-3.2-0.7-3.5
			C725.6,115.6,724.6,116.5,724.1,118.6z"/>
		<path fill="#0015FF" d="M729.6,119.6c0.2-0.6,0.3-1.1,0.4-1.5l0.9,0.2l-0.2,0.9l0,0c0.5-0.4,1.1-0.8,2-0.6
			c0.8,0.2,1.2,0.8,1.3,1.5l0,0c0.3-0.3,0.5-0.5,0.8-0.6c0.4-0.2,0.8-0.2,1.3-0.1c0.7,0.2,1.7,1,1.2,2.9l-0.9,3.3l-1-0.3l0.8-3.2
			c0.3-1.1,0.1-1.8-0.8-2.1c-0.6-0.2-1.1,0.2-1.5,0.6c-0.1,0.1-0.2,0.3-0.2,0.5l-0.9,3.5l-1-0.3l0.9-3.4c0.2-0.9,0-1.6-0.8-1.9
			c-0.6-0.2-1.2,0.2-1.5,0.7c-0.1,0.1-0.2,0.3-0.2,0.5l-0.9,3.4l-1-0.3L729.6,119.6z"/>
		<path fill="#0015FF" d="M716,127.6l-0.4,1.6l1.5,0.4l-0.2,0.8l-1.5-0.4l-0.8,3c-0.2,0.7-0.1,1.1,0.5,1.3c0.3,0.1,0.5,0.1,0.6,0.1
			l-0.2,0.8c-0.2,0-0.5,0-0.9-0.1c-0.5-0.1-0.8-0.4-1-0.7c-0.2-0.4-0.2-0.9,0-1.6l0.8-3.1l-0.9-0.2l0.2-0.8l0.9,0.2l0.4-1.3
			L716,127.6z"/>
		<path fill="#0015FF" d="M717.7,131.6c0.2-0.7,0.3-1.2,0.4-1.8l0.9,0.2l-0.3,1.1l0,0c0.5-0.7,1.2-1,1.9-0.8c0.1,0,0.2,0.1,0.3,0.1
			l-0.3,1c-0.1-0.1-0.2-0.1-0.3-0.1c-0.7-0.2-1.4,0.2-1.7,0.9c-0.1,0.1-0.1,0.3-0.2,0.5l-0.8,3l-1-0.3L717.7,131.6z"/>
		<path fill="#0015FF" d="M720.5,136.5l1.5-5.6l1,0.3l-1.5,5.6L720.5,136.5z M723.6,129.6c-0.1,0.4-0.4,0.6-0.8,0.5
			c-0.4-0.1-0.5-0.4-0.4-0.8c0.1-0.4,0.4-0.6,0.8-0.5C723.5,128.9,723.7,129.3,723.6,129.6z"/>
		<path fill="#0015FF" d="M726.9,131.2L726.9,131.2l-1.5,0.4l0-0.8l1.9-0.4l0.9,0.2l-2,7.5l-1-0.3L726.9,131.2z"/>
		<path fill="#0015FF" d="M735,133.1c-0.2-0.1-0.5-0.1-0.8-0.2c-1.7-0.2-2.8,0.8-3.3,2l0,0c0.5-0.4,1.2-0.6,2.1-0.4
			c1.3,0.4,2,1.6,1.6,3c-0.4,1.4-1.6,2.4-3.2,2c-1.6-0.4-2.3-2-1.8-3.9c0.4-1.5,1.2-2.5,2.2-3.1c0.8-0.4,1.7-0.6,2.7-0.5
			c0.3,0,0.6,0.1,0.8,0.1L735,133.1z M733.5,137.3c0.3-1.1-0.2-1.9-1.1-2.1c-0.6-0.2-1.3,0.1-1.7,0.5c-0.1,0.1-0.2,0.2-0.2,0.4
			c-0.3,1.2,0,2.3,1.1,2.6C732.5,139,733.3,138.4,733.5,137.3z"/>
		<path fill="#0015FF" d="M737.1,138.3l-1.5,2.2l-1-0.3l4.7-7.1l1.2,0.3l0.6,8.5l-1.1-0.3l-0.2-2.7L737.1,138.3z M739.9,138.2
			l-0.2-2.5c0-0.6,0-1,0-1.5l0,0c-0.2,0.4-0.5,0.9-0.8,1.3l-1.4,2.1L739.9,138.2z"/>
	</g>
	<g>
		
			<rect x="746.2" y="94.4" transform="matrix(-0.2594 0.9658 -0.9658 -0.2594 1040.9285 -600.4928)" fill="none" stroke="#0015FF" stroke-width="0.864" stroke-miterlimit="10" width="9" height="9"/>
		<g>
			<path fill="#0015FF" d="M749.7,101.1c0.7,0.2,1.6,0.3,2.2,0.5l0,0c-0.5-0.3-1.1-0.7-1.8-1.2l-2.2-1.6l0.1-0.5l2.6-0.2
				c0.8,0,1.5-0.1,2.1-0.1l0,0c-0.6-0.2-1.5-0.4-2.2-0.7l-2.1-0.7l0.2-0.6l5,1.7l-0.2,0.8l-2.7,0.2c-0.7,0-1.3,0.1-1.8,0.1l0,0
				c0.5,0.3,1,0.6,1.6,1l2.2,1.6l-0.2,0.8l-5.1-1l0.2-0.6L749.7,101.1z"/>
		</g>
	</g>
	<g>
		<g>
			
				<line fill="none" stroke="#0015FF" stroke-width="2" stroke-miterlimit="10" stroke-dasharray="4,4" x1="784.6" y1="98.8" x2="755.3" y2="99"/>
			<g>
				<polygon fill="#0015FF" points="782.4,95.9 783.7,98.8 782.4,101.8 789.4,98.8 				"/>
			</g>
		</g>
	</g>
	<g>
		
			<rect x="791.6" y="94.6" transform="matrix(-0.2594 0.9658 -0.9658 -0.2594 1098.2966 -643.9736)" fill="none" stroke="#0015FF" stroke-width="0.864" stroke-miterlimit="10" width="9" height="9"/>
		<g>
			<path fill="#0015FF" d="M795,101.3c0.7,0.2,1.6,0.3,2.2,0.5l0,0c-0.5-0.3-1.1-0.7-1.8-1.2l-2.2-1.6l0.1-0.5l2.6-0.2
				c0.8,0,1.5-0.1,2.1-0.1l0,0c-0.6-0.2-1.5-0.5-2.2-0.7l-2.1-0.7l0.2-0.6l5,1.7l-0.2,0.8l-2.7,0.2c-0.7,0-1.3,0.1-1.8,0.1l0,0
				c0.5,0.3,1,0.6,1.6,1l2.2,1.6l-0.2,0.8l-5.1-1l0.2-0.6L795,101.3z"/>
		</g>
	</g>
	
		<line fill="none" stroke="#0015FF" stroke-width="2" stroke-miterlimit="10" stroke-dasharray="4" x1="901.8" y1="156.6" x2="863.1" y2="156.9"/>
	
		<line fill="none" stroke="#0015FF" stroke-width="2" stroke-miterlimit="10" stroke-dasharray="4" x1="902" y1="105.2" x2="901.8" y2="160.6"/>
	<g>
		<g>
			
				<line fill="none" stroke="#0015FF" stroke-width="2" stroke-miterlimit="10" stroke-dasharray="4,4" x1="863.2" y1="105.1" x2="902" y2="105.2"/>
			<g>
				<polygon fill="#0015FF" points="865.4,108 864.2,105.1 865.5,102.1 858.4,105 				"/>
			</g>
		</g>
	</g>
	<g>
		<path fill="#0015FF" d="M774.8,69.4l-2.9-0.8l-0.8,1.9c0.2,0,0.3,0,0.6,0.1c0.6,0.2,1.1,0.4,1.5,0.8c0.5,0.5,0.8,1.3,0.6,2.2
			c-0.4,1.5-1.9,2.3-3.5,1.8c-0.8-0.2-1.5-0.6-1.8-1l0.5-0.7c0.3,0.3,0.8,0.7,1.5,0.8c1,0.3,2-0.2,2.2-1.2c0.2-1-0.2-1.8-1.7-2.2
			c-0.4-0.1-0.8-0.2-1.1-0.2l1.5-3.5l3.6,1L774.8,69.4z"/>
		<path fill="#0015FF" d="M775.9,72.4c0.2-0.6,0.3-1.1,0.4-1.5l0.9,0.2L777,72l0,0c0.5-0.4,1.1-0.8,2-0.6c0.8,0.2,1.2,0.8,1.3,1.5
			l0,0c0.3-0.3,0.5-0.5,0.8-0.6c0.4-0.2,0.8-0.2,1.3-0.1c0.7,0.2,1.7,1,1.2,2.9l-0.9,3.3l-1-0.3l0.8-3.2c0.3-1.1,0.1-1.8-0.8-2.1
			c-0.6-0.2-1.1,0.2-1.5,0.6c-0.1,0.1-0.2,0.3-0.2,0.5l-0.9,3.5l-1-0.3l0.9-3.4c0.2-0.9,0-1.6-0.8-1.9c-0.6-0.2-1.2,0.2-1.5,0.7
			c-0.1,0.1-0.2,0.3-0.2,0.5l-0.9,3.4l-1-0.3L775.9,72.4z"/>
		<path fill="#0015FF" d="M769.4,77.7l-0.4,1.6l1.5,0.4l-0.2,0.8l-1.5-0.4l-0.8,3c-0.2,0.7-0.1,1.1,0.5,1.3c0.3,0.1,0.5,0.1,0.6,0.1
			l-0.2,0.8c-0.2,0-0.5,0-0.9-0.1c-0.5-0.1-0.8-0.4-1-0.7c-0.2-0.4-0.2-0.9,0-1.6l0.8-3.1l-0.9-0.2l0.2-0.8L768,79l0.4-1.3H769.4z"
			/>
		<path fill="#0015FF" d="M771.2,81.7c0.2-0.7,0.3-1.2,0.4-1.8l0.9,0.2l-0.3,1.1l0,0c0.5-0.7,1.2-1,1.9-0.8c0.1,0,0.2,0.1,0.3,0.1
			l-0.3,1c-0.1-0.1-0.2-0.1-0.3-0.1c-0.7-0.2-1.4,0.2-1.7,0.9c-0.1,0.1-0.1,0.3-0.2,0.5l-0.8,3l-1-0.3L771.2,81.7z"/>
		<path fill="#0015FF" d="M774,86.6l1.5-5.6l1,0.3l-1.5,5.6L774,86.6z M777,79.7c-0.1,0.4-0.4,0.6-0.8,0.5c-0.4-0.1-0.5-0.4-0.4-0.8
			c0.1-0.4,0.4-0.6,0.8-0.5C776.9,79,777.1,79.4,777,79.7z"/>
		<path fill="#0015FF" d="M780.3,81.3L780.3,81.3l-1.5,0.4l0-0.8l1.9-0.4l0.9,0.2l-2,7.5l-1-0.3L780.3,81.3z"/>
		<path fill="#0015FF" d="M788.4,83.2c-0.2-0.1-0.5-0.1-0.8-0.2c-1.7-0.2-2.8,0.8-3.3,2l0,0c0.5-0.4,1.2-0.6,2.1-0.4
			c1.3,0.4,2,1.6,1.6,3c-0.4,1.4-1.6,2.4-3.2,2c-1.6-0.4-2.3-2-1.8-3.9c0.4-1.5,1.2-2.5,2.2-3.1c0.8-0.4,1.7-0.6,2.7-0.5
			c0.3,0,0.6,0.1,0.8,0.1L788.4,83.2z M787,87.4c0.3-1.1-0.2-1.9-1.1-2.1c-0.6-0.2-1.3,0.1-1.7,0.5c-0.1,0.1-0.2,0.2-0.2,0.4
			c-0.3,1.2,0,2.3,1.1,2.6C785.9,89.1,786.7,88.5,787,87.4z"/>
		<path fill="#0015FF" d="M790.5,88.4l-1.5,2.2l-1-0.3l4.7-7.1l1.2,0.3l0.6,8.5l-1.1-0.3l-0.2-2.7L790.5,88.4z M793.3,88.3l-0.2-2.5
			c0-0.6,0-1.1,0-1.5l0,0c-0.2,0.4-0.5,0.9-0.8,1.3l-1.4,2.1L793.3,88.3z"/>
	</g>
	<g>
		<path fill="#0015FF" d="M870.1,120.5l0.2-0.6l1-0.6c2.4-1.3,3.5-2.1,3.9-3.2c0.2-0.8,0-1.6-1.1-1.9c-0.7-0.2-1.3,0-1.8,0.2
			l-0.1-0.8c0.6-0.3,1.5-0.4,2.3-0.2c1.6,0.4,2,1.7,1.7,2.8c-0.4,1.4-1.7,2.2-3.7,3.4l-0.8,0.4l0,0l3.4,0.9l-0.2,0.8L870.1,120.5z"
			/>
		<path fill="#0015FF" d="M882.1,119.5c-0.7,2.6-2,3.7-3.7,3.3c-1.5-0.4-2.1-2-1.5-4.5c0.7-2.5,2.1-3.6,3.7-3.2
			C882.2,115.5,882.7,117.1,882.1,119.5z M878,118.6c-0.5,2-0.2,3.2,0.7,3.5c1,0.3,1.9-0.8,2.4-2.7c0.5-1.9,0.3-3.2-0.7-3.5
			C879.5,115.6,878.5,116.5,878,118.6z"/>
		<path fill="#0015FF" d="M883.4,119.6c0.2-0.6,0.3-1.1,0.4-1.5l0.9,0.2l-0.2,0.9l0,0c0.5-0.4,1.1-0.8,2-0.6
			c0.8,0.2,1.2,0.8,1.3,1.5l0,0c0.3-0.3,0.5-0.5,0.8-0.6c0.4-0.2,0.8-0.2,1.3-0.1c0.7,0.2,1.7,1,1.2,2.9l-0.9,3.3l-1-0.3l0.8-3.2
			c0.3-1.1,0.1-1.8-0.8-2.1c-0.6-0.2-1.1,0.2-1.5,0.6c-0.1,0.1-0.2,0.3-0.2,0.5l-0.9,3.5l-1-0.3l0.9-3.4c0.2-0.9,0-1.6-0.8-1.9
			c-0.6-0.2-1.2,0.2-1.5,0.7c-0.1,0.1-0.2,0.3-0.2,0.5l-0.9,3.4l-1-0.3L883.4,119.6z"/>
		<path fill="#0015FF" d="M871,123.3l-0.4,1.6l1.5,0.4l-0.2,0.8l-1.5-0.4l-0.8,3c-0.2,0.7-0.1,1.1,0.5,1.3c0.3,0.1,0.5,0.1,0.6,0.1
			l-0.2,0.8c-0.2,0-0.5,0-0.9-0.1c-0.5-0.1-0.8-0.4-1-0.7c-0.2-0.4-0.2-0.9,0-1.6l0.8-3.1l-0.9-0.2l0.2-0.8l0.9,0.2l0.4-1.3H871z"/>
		<path fill="#0015FF" d="M872.7,127.4c0.2-0.7,0.3-1.2,0.4-1.8l0.9,0.2l-0.3,1.1l0,0c0.5-0.7,1.2-1,1.9-0.8c0.1,0,0.2,0.1,0.3,0.1
			l-0.3,1c-0.1-0.1-0.2-0.1-0.3-0.1c-0.7-0.2-1.4,0.2-1.7,0.9c-0.1,0.1-0.1,0.3-0.2,0.5l-0.8,3l-1-0.3L872.7,127.4z"/>
		<path fill="#0015FF" d="M875.5,132.3l1.5-5.6l1,0.3l-1.5,5.6L875.5,132.3z M878.6,125.4c-0.1,0.4-0.4,0.6-0.8,0.5
			c-0.4-0.1-0.5-0.4-0.4-0.8c0.1-0.4,0.4-0.6,0.8-0.5C878.5,124.7,878.7,125,878.6,125.4z"/>
		<path fill="#0015FF" d="M881.9,126.9L881.9,126.9l-1.5,0.4l0-0.8l1.9-0.4l0.9,0.2l-2,7.5l-1-0.3L881.9,126.9z"/>
		<path fill="#0015FF" d="M890,128.8c-0.2-0.1-0.5-0.1-0.8-0.2c-1.7-0.2-2.8,0.8-3.3,2l0,0c0.5-0.4,1.2-0.6,2.1-0.4
			c1.3,0.4,2,1.6,1.6,3c-0.4,1.4-1.6,2.4-3.2,2c-1.6-0.4-2.3-2-1.8-3.9c0.4-1.5,1.2-2.5,2.2-3.1c0.8-0.4,1.7-0.6,2.7-0.5
			c0.3,0,0.6,0.1,0.8,0.1L890,128.8z M888.6,133.1c0.3-1.1-0.2-1.9-1.1-2.1c-0.6-0.2-1.3,0.1-1.7,0.5c-0.1,0.1-0.2,0.2-0.2,0.4
			c-0.3,1.2,0,2.3,1.1,2.6C887.5,134.7,888.3,134.2,888.6,133.1z"/>
		<path fill="#0015FF" d="M892.1,134.1l-1.5,2.2l-1-0.3l4.7-7.1l1.2,0.3l0.6,8.5l-1.1-0.3l-0.2-2.7L892.1,134.1z M894.9,133.9
			l-0.2-2.5c0-0.6,0-1,0-1.5l0,0c-0.2,0.4-0.5,0.9-0.8,1.3l-1.4,2.1L894.9,133.9z"/>
	</g>
	<g>
		<g>
			
				<line fill="none" stroke="#0015FF" stroke-width="2" stroke-miterlimit="10" stroke-dasharray="4,4" x1="823.5" y1="100.8" x2="848.9" y2="101.8"/>
			<g>
				<polygon fill="#0015FF" points="825.6,103.8 824.5,100.8 825.9,97.9 818.7,100.6 				"/>
			</g>
		</g>
	</g>
	<g>
		
			<rect x="809.8" y="95.3" transform="matrix(-0.2594 0.9658 -0.9658 -0.2594 1121.9899 -660.7158)" fill="none" stroke="#0015FF" stroke-width="0.864" stroke-miterlimit="10" width="9" height="9"/>
		<g>
			<path fill="#0015FF" d="M813.3,102.1c0.7,0.2,1.6,0.3,2.2,0.5l0,0c-0.5-0.3-1.1-0.7-1.8-1.2l-2.2-1.6l0.1-0.5l2.6-0.2
				c0.8,0,1.5-0.1,2.1-0.1l0,0c-0.6-0.2-1.5-0.4-2.2-0.7l-2.1-0.7l0.2-0.6l5,1.7l-0.2,0.8l-2.7,0.2c-0.7,0-1.3,0.1-1.8,0.1l0,0
				c0.5,0.3,1,0.6,1.6,1l2.2,1.6l-0.2,0.8l-5.2-1l0.2-0.6L813.3,102.1z"/>
		</g>
	</g>
	<g>
		<path fill="#0015FF" d="M834.3,69.4l-2.9-0.8l-0.8,1.9c0.2,0,0.3,0,0.6,0.1c0.6,0.2,1.1,0.4,1.5,0.8c0.5,0.5,0.8,1.3,0.6,2.2
			c-0.4,1.5-1.9,2.3-3.5,1.8c-0.8-0.2-1.5-0.6-1.8-1l0.5-0.7c0.3,0.3,0.8,0.7,1.5,0.8c1,0.3,2-0.2,2.2-1.2c0.2-1-0.2-1.8-1.7-2.2
			c-0.4-0.1-0.8-0.2-1.1-0.2l1.4-3.5l3.6,1L834.3,69.4z"/>
		<path fill="#0015FF" d="M835.4,72.4c0.2-0.6,0.3-1.1,0.4-1.5l0.9,0.2l-0.2,0.9l0,0c0.5-0.4,1.1-0.8,2-0.6c0.8,0.2,1.2,0.8,1.3,1.5
			l0,0c0.3-0.3,0.5-0.5,0.8-0.6c0.4-0.2,0.8-0.2,1.3-0.1c0.7,0.2,1.7,1,1.2,2.9l-0.9,3.3l-1-0.3l0.8-3.2c0.3-1.1,0.1-1.8-0.8-2.1
			c-0.6-0.2-1.1,0.2-1.5,0.6c-0.1,0.1-0.2,0.3-0.2,0.5l-0.9,3.5l-1-0.3l0.9-3.4c0.2-0.9,0-1.6-0.8-1.9c-0.6-0.2-1.2,0.2-1.5,0.7
			c-0.1,0.1-0.2,0.3-0.2,0.5l-0.9,3.4l-1-0.3L835.4,72.4z"/>
		<path fill="#0015FF" d="M828.9,77.7l-0.4,1.6l1.5,0.4l-0.2,0.8l-1.5-0.4l-0.8,3c-0.2,0.7-0.1,1.1,0.5,1.3c0.3,0.1,0.5,0.1,0.6,0.1
			l-0.2,0.8c-0.2,0-0.5,0-0.9-0.1c-0.5-0.1-0.8-0.4-1-0.7c-0.2-0.4-0.2-0.9,0-1.6l0.8-3.1l-0.9-0.2l0.2-0.8l0.9,0.2l0.4-1.3H828.9z"
			/>
		<path fill="#0015FF" d="M830.6,81.7c0.2-0.7,0.3-1.2,0.4-1.8l0.9,0.2l-0.3,1.1l0,0c0.5-0.7,1.2-1,1.9-0.8c0.1,0,0.2,0.1,0.3,0.1
			l-0.3,1c-0.1-0.1-0.2-0.1-0.3-0.1c-0.7-0.2-1.4,0.2-1.7,0.9c-0.1,0.1-0.1,0.3-0.2,0.5l-0.8,3l-1-0.3L830.6,81.7z"/>
		<path fill="#0015FF" d="M833.4,86.6l1.5-5.6l1,0.3l-1.5,5.6L833.4,86.6z M836.5,79.7c-0.1,0.4-0.4,0.6-0.8,0.5
			c-0.4-0.1-0.5-0.4-0.4-0.8c0.1-0.4,0.4-0.6,0.8-0.5C836.4,79,836.6,79.4,836.5,79.7z"/>
		<path fill="#0015FF" d="M839.8,81.3L839.8,81.3l-1.5,0.4l0-0.8l1.9-0.4l0.9,0.2l-2,7.5l-1-0.3L839.8,81.3z"/>
		<path fill="#0015FF" d="M847.9,83.2c-0.2-0.1-0.5-0.1-0.8-0.2c-1.7-0.2-2.8,0.8-3.3,2l0,0c0.5-0.4,1.2-0.6,2.1-0.4
			c1.3,0.4,2,1.6,1.6,3c-0.4,1.4-1.6,2.4-3.2,2c-1.6-0.4-2.3-2-1.8-3.9c0.4-1.5,1.2-2.5,2.2-3.1c0.8-0.4,1.7-0.6,2.7-0.5
			c0.3,0,0.6,0.1,0.8,0.1L847.9,83.2z M846.4,87.4c0.3-1.1-0.2-1.9-1.1-2.1c-0.6-0.2-1.3,0.1-1.7,0.5c-0.1,0.1-0.2,0.2-0.2,0.4
			c-0.3,1.2,0,2.3,1.1,2.6C845.3,89.1,846.1,88.5,846.4,87.4z"/>
		<path fill="#0015FF" d="M850,88.4l-1.5,2.2l-1-0.3l4.7-7.1l1.2,0.3l0.6,8.5l-1.1-0.3l-0.2-2.7L850,88.4z M852.7,88.3l-0.2-2.5
			c0-0.6,0-1.1,0-1.5l0,0c-0.2,0.4-0.5,0.9-0.8,1.3l-1.4,2.1L852.7,88.3z"/>
	</g>
	<g>
		
			<rect x="122.2" y="143" transform="matrix(-0.2742 0.9617 -0.9617 -0.2742 302.525 66.0003)" fill="none" stroke="#B755FF" stroke-width="1.2" stroke-miterlimit="10" width="8.3" height="8.3"/>
		<g>
			<path fill="#B755FF" d="M128.3,146.7l0.4-1.4l0.5,0.1l-1,3.5l-0.5-0.1l0.4-1.4l-4.2-1.2l0.2-0.6L128.3,146.7z"/>
		</g>
	</g>
	<g>
		<g>
			
				<line fill="none" stroke="#1AD0FE" stroke-width="1.5" stroke-miterlimit="10" stroke-dasharray="3,3" x1="1056" y1="148.1" x2="1056" y2="179.6"/>
			<g>
				<polygon fill="#1AD0FE" points="1053.8,149.8 1056,148.9 1058.3,149.8 1056,144.5 				"/>
			</g>
		</g>
	</g>
	
		<line fill="none" stroke="#1AD0FE" stroke-width="1.5" stroke-miterlimit="10" stroke-dasharray="3" x1="1056" y1="179.6" x2="901.9" y2="178.6"/>
	<g>
		<g>
			
				<line fill="none" stroke="#1AD0FE" stroke-width="1.5" stroke-miterlimit="10" stroke-dasharray="3,3" x1="901.8" y1="162.1" x2="864.2" y2="162.4"/>
			<g>
				
					<ellipse transform="matrix(1 -6.547612e-03 6.547612e-03 1 -1.0447 5.6623)" fill="#1AD0FE" cx="864.3" cy="162.4" rx="1.1" ry="1.1"/>
			</g>
		</g>
	</g>
	
		<line fill="none" stroke="#1AD0FE" stroke-width="1.5" stroke-miterlimit="10" stroke-dasharray="3" x1="901.9" y1="178.6" x2="901.8" y2="162.7"/>
	<g>
		<path fill="#1AD0FE" d="M973.4,166.4l0-0.6l0.8-0.8c2-1.9,3-2.8,3-4c0-0.8-0.4-1.5-1.5-1.6c-0.7,0-1.3,0.3-1.7,0.6l-0.3-0.8
			c0.5-0.4,1.3-0.8,2.2-0.7c1.7,0,2.4,1.2,2.3,2.3c0,1.4-1.1,2.6-2.8,4.1l-0.6,0.6l0,0l3.5,0.1l0,0.9L973.4,166.4z"/>
		<path fill="#1AD0FE" d="M984.4,159.7l-3-0.1l-0.3,2c0.2,0,0.3,0,0.6,0c0.6,0,1.2,0.2,1.7,0.5c0.6,0.4,1.1,1,1.1,2
			c0,1.5-1.3,2.6-3,2.6c-0.9,0-1.6-0.3-1.9-0.5l0.3-0.8c0.3,0.2,0.9,0.5,1.7,0.5c1,0,1.9-0.6,1.9-1.7c0-1-0.6-1.7-2.2-1.8
			c-0.4,0-0.8,0-1.1,0.1l0.6-3.7l3.7,0.1L984.4,159.7z"/>
		<path fill="#1AD0FE" d="M986.1,162.4c0-0.6,0-1.1,0-1.6l0.9,0l0,0.9l0,0c0.3-0.5,0.9-1,1.8-1c0.8,0,1.4,0.5,1.6,1.2h0
			c0.2-0.3,0.4-0.6,0.7-0.7c0.4-0.3,0.7-0.4,1.3-0.4c0.8,0,1.9,0.5,1.9,2.6l-0.1,3.4l-1,0l0.1-3.3c0-1.1-0.4-1.8-1.2-1.8
			c-0.6,0-1.1,0.4-1.3,0.9c-0.1,0.1-0.1,0.3-0.1,0.5l-0.1,3.6l-1,0l0.1-3.5c0-0.9-0.4-1.6-1.2-1.6c-0.7,0-1.2,0.5-1.3,1
			c-0.1,0.2-0.1,0.3-0.1,0.5l-0.1,3.5l-1,0L986.1,162.4z"/>
		<path fill="#1AD0FE" d="M973.6,172.2c0-0.6,0-1.1,0-1.6l0.9,0l0,0.9l0,0c0.3-0.5,0.9-1,1.8-1c0.8,0,1.4,0.5,1.6,1.2l0,0
			c0.2-0.3,0.4-0.6,0.7-0.7c0.4-0.3,0.7-0.4,1.3-0.4c0.8,0,1.9,0.5,1.9,2.6l-0.1,3.4l-1,0l0.1-3.3c0-1.1-0.4-1.8-1.2-1.8
			c-0.6,0-1.1,0.4-1.3,0.9c0,0.1-0.1,0.3-0.1,0.5l-0.1,3.6l-1,0l0.1-3.5c0-0.9-0.4-1.6-1.2-1.6c-0.7,0-1.2,0.5-1.3,1
			c-0.1,0.2-0.1,0.3-0.1,0.5l-0.1,3.5l-1,0L973.6,172.2z"/>
		<path fill="#1AD0FE" d="M988.9,173.8c0,2.1-1.6,3-3,3c-1.6,0-2.8-1.2-2.7-3c0-1.9,1.3-3.1,2.9-3
			C987.8,170.8,988.9,172,988.9,173.8z M984.3,173.7c0,1.3,0.7,2.2,1.7,2.3c1,0,1.8-0.9,1.8-2.2c0-1-0.4-2.2-1.7-2.3
			C984.8,171.5,984.3,172.6,984.3,173.7z"/>
		<path fill="#1AD0FE" d="M990.2,172.5c0-0.6,0-1.1,0-1.6l0.9,0l0,1l0,0c0.3-0.5,1-1.1,1.9-1.1c0.8,0,2,0.5,2,2.5l-0.1,3.5l-1.1,0
			l0.1-3.3c0-0.9-0.3-1.7-1.3-1.7c-0.7,0-1.2,0.5-1.4,1.1c-0.1,0.1-0.1,0.3-0.1,0.5l-0.1,3.5l-1.1,0L990.2,172.5z"/>
		<path fill="#1AD0FE" d="M1002.1,174.1c0,2.1-1.6,3-3,3c-1.6,0-2.8-1.2-2.7-3c0-1.9,1.3-3.1,2.9-3
			C1001,171,1002.1,172.3,1002.1,174.1z M997.5,174c0,1.3,0.7,2.2,1.7,2.3c1,0,1.8-0.9,1.8-2.2c0-1-0.4-2.2-1.7-2.3
			C998.1,171.8,997.5,172.9,997.5,174z"/>
		<path fill="#1AD0FE" d="M1005.5,170.3L1005.5,170.3l-1.4,0.7l-0.2-0.8l1.7-0.9l0.9,0l-0.2,7.8l-1,0L1005.5,170.3z"/>
		<path fill="#1AD0FE" d="M1013.8,170.2c-0.2,0-0.5,0-0.8,0c-1.7,0.2-2.6,1.4-2.8,2.7l0,0c0.4-0.5,1-0.9,1.9-0.9
			c1.4,0,2.3,1,2.3,2.6c0,1.4-1,2.7-2.6,2.7c-1.7,0-2.7-1.4-2.7-3.4c0-1.5,0.6-2.7,1.4-3.5c0.7-0.6,1.5-1,2.5-1.1c0.3,0,0.6,0,0.8,0
			L1013.8,170.2z M1013.4,174.7c0-1.1-0.6-1.8-1.6-1.8c-0.6,0-1.2,0.4-1.5,0.9c-0.1,0.1-0.1,0.3-0.1,0.5c0,1.3,0.6,2.2,1.7,2.3
			C1012.7,176.5,1013.4,175.8,1013.4,174.7z"/>
		<path fill="#1AD0FE" d="M1017.1,174.8l-0.9,2.5l-1.1,0l2.9-8l1.3,0l2.6,8.1l-1.1,0l-0.8-2.6L1017.1,174.8z M1019.7,174l-0.7-2.3
			c-0.2-0.5-0.3-1-0.4-1.5l0,0c-0.1,0.5-0.3,1-0.4,1.5l-0.8,2.3L1019.7,174z"/>
	</g>
	<g>
		<path fill="#1AD0FE" d="M634.2,98.4L634.2,98.4l-1.4,0.7l-0.2-0.8l1.7-0.9l0.9,0l-0.2,7.8l-1,0L634.2,98.4z"/>
		<path fill="#1AD0FE" d="M643.1,101.4c-0.1,2.6-1.1,4.1-2.8,4.1c-1.5,0-2.5-1.5-2.5-4.1c0.1-2.6,1.2-4,2.8-4
			C642.3,97.4,643.2,98.9,643.1,101.4z M638.9,101.4c0,2,0.6,3.2,1.5,3.2c1.1,0,1.6-1.2,1.7-3.2c0-1.9-0.4-3.2-1.5-3.2
			C639.6,98.2,639,99.3,638.9,101.4z"/>
		<path fill="#1AD0FE" d="M644.5,101.2c0-0.6,0-1.1,0-1.6l0.9,0l0,0.9h0c0.3-0.5,0.9-1,1.8-1c0.8,0,1.4,0.5,1.6,1.2h0
			c0.2-0.3,0.4-0.6,0.7-0.7c0.4-0.3,0.7-0.4,1.3-0.4c0.8,0,1.9,0.5,1.9,2.6l-0.1,3.4l-1,0l0.1-3.3c0-1.1-0.4-1.8-1.2-1.8
			c-0.6,0-1.1,0.4-1.3,0.9c-0.1,0.1-0.1,0.3-0.1,0.5l-0.1,3.6l-1,0l0.1-3.5c0-0.9-0.4-1.6-1.2-1.6c-0.7,0-1.2,0.5-1.3,1
			c-0.1,0.2-0.1,0.3-0.1,0.5l-0.1,3.5l-1,0L644.5,101.2z"/>
		<path fill="#1AD0FE" d="M631.9,110.9c0-0.6,0-1.1,0-1.6l0.9,0l0,0.9l0,0c0.3-0.5,0.9-1,1.8-1c0.8,0,1.4,0.5,1.6,1.2h0
			c0.2-0.3,0.4-0.6,0.7-0.7c0.4-0.3,0.7-0.4,1.3-0.4c0.8,0,1.9,0.5,1.9,2.6l-0.1,3.4l-1,0l0.1-3.3c0-1.1-0.4-1.8-1.2-1.8
			c-0.6,0-1.1,0.4-1.3,0.9c-0.1,0.1-0.1,0.3-0.1,0.5l-0.1,3.6l-1,0l0.1-3.5c0-0.9-0.4-1.6-1.2-1.6c-0.7,0-1.1,0.5-1.3,1
			c-0.1,0.2-0.1,0.3-0.1,0.5l-0.1,3.5l-1,0L631.9,110.9z"/>
		<path fill="#1AD0FE" d="M647.2,112.5c0,2.1-1.6,3-3,3c-1.6,0-2.8-1.2-2.7-3c0-1.9,1.3-3.1,2.9-3
			C646.1,109.5,647.2,110.7,647.2,112.5z M642.6,112.5c0,1.3,0.7,2.2,1.7,2.3c1,0,1.8-0.9,1.8-2.2c0-1-0.4-2.2-1.7-2.3
			C643.2,110.2,642.6,111.4,642.6,112.5z"/>
		<path fill="#1AD0FE" d="M648.5,111.2c0-0.6,0-1.1,0-1.6l0.9,0l0,1h0c0.3-0.5,1-1.1,1.9-1.1c0.8,0,2,0.5,2,2.5l-0.1,3.5l-1.1,0
			l0.1-3.3c0-0.9-0.3-1.7-1.3-1.7c-0.7,0-1.2,0.5-1.4,1c-0.1,0.1-0.1,0.3-0.1,0.5l-0.1,3.5l-1.1,0L648.5,111.2z"/>
		<path fill="#1AD0FE" d="M660.4,112.8c0,2.1-1.6,3-3,3c-1.6,0-2.8-1.2-2.7-3c0-1.9,1.3-3.1,2.9-3
			C659.4,109.8,660.5,111,660.4,112.8z M655.8,112.7c0,1.3,0.7,2.2,1.7,2.3c1,0,1.8-0.9,1.8-2.2c0-1-0.4-2.2-1.7-2.3
			C656.4,110.5,655.8,111.6,655.8,112.7z"/>
		<path fill="#1AD0FE" d="M663.8,109L663.8,109l-1.4,0.7l-0.2-0.8l1.7-0.9l0.9,0l-0.2,7.8l-1,0L663.8,109z"/>
		<path fill="#1AD0FE" d="M672.1,108.9c-0.2,0-0.5,0-0.8,0c-1.7,0.2-2.6,1.4-2.8,2.7l0,0c0.4-0.5,1-0.9,1.9-0.9c1.4,0,2.3,1,2.3,2.6
			c0,1.4-1,2.7-2.6,2.7c-1.7,0-2.7-1.4-2.7-3.4c0-1.5,0.6-2.7,1.4-3.5c0.7-0.6,1.5-1,2.5-1.1c0.3,0,0.6,0,0.8,0L672.1,108.9z
			 M671.7,113.4c0-1.1-0.6-1.8-1.6-1.8c-0.6,0-1.2,0.4-1.5,0.9c-0.1,0.1-0.1,0.3-0.1,0.5c0,1.3,0.6,2.2,1.7,2.3
			C671.1,115.3,671.7,114.5,671.7,113.4z"/>
		<path fill="#1AD0FE" d="M675.4,113.5l-0.9,2.5l-1.1,0l2.9-8l1.3,0l2.6,8.1l-1.1,0l-0.8-2.6L675.4,113.5z M678.1,112.7l-0.7-2.3
			c-0.2-0.5-0.3-1-0.4-1.5l0,0c-0.1,0.5-0.3,1-0.4,1.5l-0.8,2.3L678.1,112.7z"/>
	</g>
	<g>
		<g>
			
				<line fill="none" stroke="#1AD0FE" stroke-width="1.5" stroke-miterlimit="10" stroke-dasharray="3,3" x1="898" y1="167.6" x2="863.9" y2="167.4"/>
			<g>
				
					<ellipse transform="matrix(6.141742e-03 -1 1 6.141742e-03 691.2935 1030.3682)" fill="#1AD0FE" cx="864" cy="167.4" rx="1.1" ry="1.1"/>
			</g>
		</g>
	</g>
	
		<line fill="none" stroke="#1AD0FE" stroke-width="1.5" stroke-miterlimit="10" stroke-dasharray="3" x1="898.5" y1="260.5" x2="898" y2="165"/>
	
		<line fill="none" stroke="#1AD0FE" stroke-width="1.5" stroke-miterlimit="10" stroke-dasharray="3" x1="818.4" y1="260.4" x2="898.5" y2="260.5"/>
	<g>
		<g>
			
				<line fill="none" stroke="#1AD0FE" stroke-width="1.5" stroke-miterlimit="10" stroke-dasharray="3,3" x1="818.4" y1="368.8" x2="818.4" y2="260.4"/>
			<g>
				<polygon fill="#1AD0FE" points="818.4,373 820.8,367 818.4,368.4 815.9,367 				"/>
			</g>
		</g>
	</g>
	<g>
		<path fill="#1AD0FE" d="M762.9,291.7l0-0.6l0.8-0.8c2-1.9,3-2.8,3-4c0-0.8-0.4-1.5-1.5-1.6c-0.7,0-1.3,0.3-1.7,0.6l-0.3-0.8
			c0.5-0.4,1.3-0.8,2.2-0.7c1.7,0,2.4,1.2,2.3,2.3c0,1.4-1.1,2.6-2.8,4.1l-0.6,0.6l0,0l3.5,0.1l0,0.9L762.9,291.7z"/>
		<path fill="#1AD0FE" d="M773.9,285l-3-0.1l-0.3,2c0.2,0,0.3,0,0.6,0c0.6,0,1.2,0.2,1.7,0.5c0.6,0.4,1.1,1,1.1,2
			c0,1.5-1.3,2.6-3,2.6c-0.9,0-1.6-0.3-1.9-0.5l0.3-0.8c0.3,0.2,1,0.5,1.7,0.5c1,0,1.9-0.6,1.9-1.7c0-1-0.6-1.7-2.2-1.8
			c-0.4,0-0.8,0-1.1,0.1l0.6-3.7l3.7,0.1L773.9,285z"/>
		<path fill="#1AD0FE" d="M775.7,287.8c0-0.6,0-1.1,0-1.6l0.9,0l0,0.9l0,0c0.3-0.5,0.9-1,1.8-1c0.8,0,1.4,0.5,1.6,1.2h0
			c0.2-0.3,0.4-0.6,0.7-0.7c0.4-0.3,0.7-0.4,1.3-0.4c0.8,0,1.9,0.5,1.9,2.6l-0.1,3.4l-1,0l0.1-3.3c0-1.1-0.4-1.8-1.2-1.8
			c-0.6,0-1.1,0.4-1.3,0.9c-0.1,0.1-0.1,0.3-0.1,0.5l-0.1,3.6l-1,0l0.1-3.5c0-0.9-0.4-1.6-1.2-1.6c-0.7,0-1.2,0.5-1.3,1
			c-0.1,0.2-0.1,0.3-0.1,0.5l-0.1,3.5l-1,0L775.7,287.8z"/>
		<path fill="#1AD0FE" d="M763.1,297.5c0-0.6,0-1.1,0-1.6l0.9,0l0,0.9l0,0c0.3-0.5,0.9-1,1.8-1c0.8,0,1.4,0.5,1.6,1.2l0,0
			c0.2-0.3,0.4-0.6,0.7-0.7c0.4-0.3,0.7-0.4,1.3-0.4c0.8,0,1.9,0.5,1.9,2.6l-0.1,3.4l-1,0l0.1-3.3c0-1.1-0.4-1.8-1.2-1.8
			c-0.6,0-1.1,0.4-1.3,0.9c-0.1,0.1-0.1,0.3-0.1,0.5l-0.1,3.6l-1,0l0.1-3.5c0-0.9-0.4-1.6-1.2-1.6c-0.7,0-1.2,0.5-1.3,1
			c-0.1,0.2-0.1,0.3-0.1,0.5l-0.1,3.5l-1,0L763.1,297.5z"/>
		<path fill="#1AD0FE" d="M778.4,299.1c0,2.1-1.6,3-3,3c-1.6,0-2.8-1.2-2.7-3c0-1.9,1.3-3.1,2.9-3
			C777.3,296.1,778.4,297.3,778.4,299.1z M773.8,299.1c0,1.3,0.7,2.2,1.7,2.3c1,0,1.8-0.9,1.8-2.2c0-1-0.4-2.2-1.7-2.3
			C774.4,296.8,773.8,298,773.8,299.1z"/>
		<path fill="#1AD0FE" d="M779.7,297.8c0-0.6,0-1.1,0-1.6l0.9,0l0,1l0,0c0.3-0.5,1-1.1,1.9-1.1c0.8,0,2,0.5,2,2.5l-0.1,3.5l-1.1,0
			l0.1-3.3c0-0.9-0.3-1.7-1.3-1.7c-0.7,0-1.2,0.5-1.4,1.1c-0.1,0.1-0.1,0.3-0.1,0.5l-0.1,3.5l-1.1,0L779.7,297.8z"/>
		<path fill="#1AD0FE" d="M791.6,299.4c0,2.1-1.6,3-3,3c-1.6,0-2.8-1.2-2.7-3c0-1.9,1.3-3.1,2.9-3
			C790.6,296.4,791.7,297.6,791.6,299.4z M787,299.3c0,1.3,0.7,2.2,1.7,2.3c1,0,1.8-0.9,1.8-2.2c0-1-0.4-2.2-1.7-2.3
			C787.6,297.1,787,298.2,787,299.3z"/>
		<path fill="#1AD0FE" d="M795,295.6L795,295.6l-1.4,0.7l-0.2-0.8l1.7-0.9l0.9,0l-0.2,7.8l-1,0L795,295.6z"/>
		<path fill="#1AD0FE" d="M803.3,295.5c-0.2,0-0.5,0-0.8,0c-1.7,0.2-2.6,1.4-2.8,2.7h0c0.4-0.5,1-0.9,1.9-0.9c1.4,0,2.3,1,2.3,2.6
			c0,1.4-1,2.7-2.6,2.7c-1.7,0-2.7-1.4-2.7-3.4c0-1.5,0.6-2.7,1.4-3.5c0.7-0.6,1.5-1,2.5-1.1c0.3,0,0.6,0,0.8,0L803.3,295.5z
			 M802.9,300c0-1.1-0.6-1.8-1.6-1.8c-0.6,0-1.2,0.4-1.5,0.9c-0.1,0.1-0.1,0.3-0.1,0.5c0,1.3,0.6,2.2,1.7,2.3
			C802.3,301.9,802.9,301.1,802.9,300z"/>
		<path fill="#1AD0FE" d="M806.6,300.1l-0.9,2.5l-1.1,0l2.9-8l1.3,0l2.6,8.1l-1.1,0l-0.8-2.6L806.6,300.1z M809.3,299.3l-0.7-2.3
			c-0.2-0.5-0.3-1-0.4-1.5l0,0c-0.1,0.5-0.3,1-0.4,1.5l-0.8,2.3L809.3,299.3z"/>
	</g>
	<g>
		<path fill="#BC8236" d="M1064.3,134.2l4.2,1.2l-0.2,0.8l-3.2-0.9l-0.7,2.6l2.9,0.8l-0.2,0.8l-2.9-0.8l-1,3.5l-1-0.3L1064.3,134.2z
			"/>
		<path fill="#BC8236" d="M1071.1,137l-2.4-0.7l0.2-0.9l5.8,1.6l-0.2,0.9l-2.4-0.7l-2,6.9l-1-0.3L1071.1,137z"/>
		<path fill="#BC8236" d="M1060.3,148.1c0.5,0.1,1.2,0.2,2,0.4c1,0.3,1.7,0.7,2,1.3c0.3,0.5,0.4,1.1,0.2,1.8
			c-0.2,0.7-0.6,1.2-1.1,1.5c-0.7,0.4-1.6,0.5-2.6,0.2c-0.3-0.1-0.6-0.2-0.8-0.3l-0.9,3.1l-1-0.3L1060.3,148.1z M1060.3,152.1
			c0.2,0.1,0.5,0.2,0.8,0.3c1.2,0.3,2.1,0,2.4-1.1c0.3-1-0.3-1.7-1.4-2c-0.4-0.1-0.8-0.2-1-0.2L1060.3,152.1z"/>
		<path fill="#BC8236" d="M1063.9,157.4l0.2-0.6l1-0.5c2.4-1.3,3.6-2,3.9-3.1c0.2-0.8,0-1.6-1.1-1.9c-0.7-0.2-1.3,0-1.8,0.2
			l-0.1-0.8c0.6-0.3,1.5-0.4,2.3-0.2c1.6,0.5,2,1.8,1.7,2.8c-0.4,1.4-1.7,2.2-3.7,3.3l-0.8,0.4l0,0l3.4,1l-0.2,0.8L1063.9,157.4z"/>
	</g>
	<g>
		<path fill="#BC8236" d="M808.4,109.5c0.5-0.1,1.2-0.2,2-0.2c1,0,1.8,0.2,2.3,0.6c0.4,0.4,0.7,1,0.7,1.7c0,0.7-0.2,1.3-0.6,1.7
			c-0.5,0.6-1.4,0.9-2.5,0.9c-0.3,0-0.6,0-0.8-0.1l0,3.2l-1,0L808.4,109.5z M809.5,113.4c0.2,0.1,0.5,0.1,0.9,0.1c1.3,0,2-0.6,2-1.8
			c0-1.1-0.8-1.6-1.9-1.6c-0.5,0-0.8,0-1,0.1L809.5,113.4z"/>
		<path fill="#BC8236" d="M816.7,110.5L816.7,110.5l-1.4,0.8l-0.2-0.8l1.7-0.9l0.9,0l0.1,7.8l-1,0L816.7,110.5z"/>
		<path fill="#BC8236" d="M820.4,118.8c0.3-0.7,0.6-2,0.7-2.9l1.2-0.1c-0.3,1-0.8,2.4-1.1,2.9L820.4,118.8z"/>
		<path fill="#BC8236" d="M826,109.2c0.5-0.1,1.2-0.2,2-0.2c1,0,1.8,0.2,2.3,0.6c0.5,0.4,0.7,1,0.7,1.7c0,0.7-0.2,1.3-0.6,1.7
			c-0.5,0.6-1.4,0.9-2.5,0.9c-0.3,0-0.6,0-0.8-0.1l0,3.2l-1,0L826,109.2z M827.1,113.1c0.2,0.1,0.5,0.1,0.9,0.1c1.3,0,2-0.6,2-1.8
			c0-1.1-0.8-1.6-1.9-1.6c-0.5,0-0.8,0-1,0.1L827.1,113.1z"/>
		<path fill="#BC8236" d="M832.1,117.1l0-0.6l0.8-0.8c2-1.9,2.8-2.9,2.8-4.1c0-0.8-0.4-1.5-1.6-1.5c-0.7,0-1.3,0.4-1.6,0.7l-0.3-0.7
			c0.5-0.5,1.3-0.8,2.2-0.8c1.7,0,2.4,1.1,2.4,2.2c0,1.4-1,2.6-2.6,4.2l-0.6,0.6v0l3.5-0.1l0,0.9L832.1,117.1z"/>
		<path fill="#BC8236" d="M837.9,118.5c0.3-0.7,0.6-2,0.7-2.9l1.2-0.1c-0.3,1-0.8,2.4-1.1,2.9L837.9,118.5z"/>
		<path fill="#BC8236" d="M843.5,109c0.5-0.1,1.2-0.2,2-0.2c1,0,1.8,0.2,2.3,0.6c0.4,0.4,0.7,1,0.7,1.7c0,0.7-0.2,1.3-0.6,1.7
			c-0.5,0.6-1.4,0.9-2.5,0.9c-0.3,0-0.6,0-0.8-0.1l0,3.2l-1,0L843.5,109z M844.6,112.8c0.2,0.1,0.5,0.1,0.9,0.1c1.3,0,2-0.6,2-1.8
			c0-1.1-0.8-1.6-1.9-1.6c-0.5,0-0.8,0-1,0.1L844.6,112.8z"/>
		<path fill="#BC8236" d="M851.8,110L851.8,110l-1.4,0.8l-0.2-0.8l1.7-0.9l0.9,0l0.1,7.8l-1,0L851.8,110z"/>
		<path fill="#BC8236" d="M855.5,118.2c0.3-0.7,0.6-2,0.7-2.9l1.2-0.1c-0.3,1-0.8,2.4-1.1,2.9L855.5,118.2z"/>
		<path fill="#BC8236" d="M861.1,108.7c0.5-0.1,1.2-0.2,2-0.2c1,0,1.8,0.2,2.3,0.6c0.5,0.4,0.7,1,0.7,1.7c0,0.7-0.2,1.3-0.6,1.7
			c-0.5,0.6-1.4,0.9-2.5,0.9c-0.3,0-0.6,0-0.8-0.1l0,3.2l-1,0L861.1,108.7z M862.2,112.6c0.2,0.1,0.5,0.1,0.9,0.1c1.3,0,2-0.6,2-1.8
			c0-1.1-0.8-1.6-1.9-1.6c-0.5,0-0.8,0-1,0.1L862.2,112.6z"/>
		<path fill="#BC8236" d="M867.2,116.6l0-0.6l0.8-0.8c2-1.9,2.8-2.9,2.8-4.1c0-0.8-0.4-1.5-1.6-1.5c-0.7,0-1.3,0.4-1.6,0.7l-0.3-0.7
			c0.5-0.5,1.3-0.8,2.2-0.8c1.7,0,2.4,1.1,2.4,2.2c0,1.4-1,2.6-2.6,4.2l-0.6,0.6v0l3.5-0.1l0,0.9L867.2,116.6z"/>
		<path fill="#BC8236" d="M873.1,118c0.3-0.7,0.6-2,0.7-2.9l1.2-0.1c-0.3,1-0.8,2.4-1.1,2.9L873.1,118z"/>
		<path fill="#BC8236" d="M878.7,108.4c0.5-0.1,1.2-0.2,2-0.2c1,0,1.8,0.2,2.3,0.6c0.4,0.4,0.7,1,0.7,1.7c0,0.7-0.2,1.3-0.6,1.7
			c-0.5,0.6-1.4,0.9-2.5,0.9c-0.3,0-0.6,0-0.8-0.1l0,3.2l-1,0L878.7,108.4z M879.8,112.3c0.2,0.1,0.5,0.1,0.9,0.1c1.3,0,2-0.6,2-1.8
			c0-1.1-0.8-1.6-1.9-1.6c-0.5,0-0.8,0-1,0.1L879.8,112.3z"/>
		<path fill="#BC8236" d="M885,115.1c0.3,0.2,1,0.5,1.7,0.5c1.4,0,1.8-0.9,1.7-1.5c0-1.1-1-1.5-2-1.5l-0.6,0l0-0.8l0.6,0
			c0.8,0,1.7-0.4,1.7-1.3c0-0.6-0.4-1.2-1.4-1.2c-0.6,0-1.2,0.3-1.6,0.5l-0.3-0.8c0.4-0.3,1.2-0.6,2-0.6c1.5,0,2.2,0.9,2.3,1.8
			c0,0.8-0.5,1.5-1.4,1.9v0c1,0.2,1.8,0.9,1.8,2c0,1.2-0.9,2.4-2.8,2.4c-0.9,0-1.6-0.2-2-0.5L885,115.1z"/>
	</g>
	<g>
		<path fill="#BC8236" d="M711.7,103.9c0.5-0.1,1.2-0.2,2-0.2c1,0,1.8,0.2,2.3,0.6c0.4,0.4,0.7,1,0.7,1.7c0,0.7-0.2,1.3-0.6,1.7
			c-0.5,0.6-1.4,0.9-2.5,0.9c-0.3,0-0.6,0-0.8-0.1l0,3.2l-1,0L711.7,103.9z M712.8,107.8c0.2,0.1,0.5,0.1,0.9,0.1c1.3,0,2-0.6,2-1.8
			c0-1.1-0.8-1.6-1.9-1.6c-0.5,0-0.8,0-1,0.1L712.8,107.8z"/>
		<path fill="#BC8236" d="M720.1,105L720.1,105l-1.4,0.8l-0.2-0.8l1.7-0.9l0.9,0l0.1,7.8l-1,0L720.1,105z"/>
		<path fill="#BC8236" d="M723.7,113.2c0.3-0.7,0.6-2,0.7-2.9l1.2-0.1c-0.3,1-0.8,2.4-1.1,2.9L723.7,113.2z"/>
		<path fill="#BC8236" d="M729.3,103.6c0.5-0.1,1.2-0.2,2-0.2c1,0,1.8,0.2,2.3,0.6c0.5,0.4,0.7,1,0.7,1.7c0,0.7-0.2,1.3-0.6,1.7
			c-0.5,0.6-1.4,0.9-2.5,0.9c-0.3,0-0.6,0-0.8-0.1l0,3.2l-1,0L729.3,103.6z M730.4,107.5c0.2,0.1,0.5,0.1,0.9,0.1c1.3,0,2-0.6,2-1.8
			c0-1.1-0.8-1.6-1.9-1.6c-0.5,0-0.8,0-1,0.1L730.4,107.5z"/>
		<path fill="#BC8236" d="M735.4,111.5l0-0.6l0.8-0.8c2-1.9,2.8-2.9,2.8-4.1c0-0.8-0.4-1.5-1.6-1.5c-0.7,0-1.3,0.4-1.6,0.7l-0.3-0.7
			c0.5-0.5,1.3-0.8,2.2-0.8c1.7,0,2.4,1.1,2.4,2.2c0,1.4-1,2.6-2.6,4.2l-0.6,0.6v0l3.5-0.1l0,0.9L735.4,111.5z"/>
		<path fill="#BC8236" d="M741.3,112.9c0.3-0.7,0.6-2,0.7-2.9l1.2-0.1c-0.3,1-0.8,2.4-1.1,2.9L741.3,112.9z"/>
		<path fill="#BC8236" d="M746.9,103.4c0.5-0.1,1.2-0.2,2-0.2c1,0,1.8,0.2,2.3,0.6c0.4,0.4,0.7,1,0.7,1.7c0,0.7-0.2,1.3-0.6,1.7
			c-0.5,0.6-1.4,0.9-2.5,0.9c-0.3,0-0.6,0-0.8-0.1l0,3.2l-1,0L746.9,103.4z M748,107.3c0.2,0.1,0.5,0.1,0.9,0.1c1.3,0,2-0.6,2-1.8
			c0-1.1-0.8-1.6-1.9-1.6c-0.5,0-0.8,0-1,0.1L748,107.3z"/>
		<path fill="#BC8236" d="M755.2,104.4L755.2,104.4l-1.4,0.8l-0.2-0.8l1.7-0.9l0.9,0l0.1,7.8l-1,0L755.2,104.4z"/>
		<path fill="#BC8236" d="M758.8,112.7c0.3-0.7,0.6-2,0.7-2.9l1.2-0.1c-0.3,1-0.8,2.4-1.1,2.9L758.8,112.7z"/>
		<path fill="#BC8236" d="M764.4,103.1c0.5-0.1,1.2-0.2,2-0.2c1,0,1.8,0.2,2.3,0.6c0.5,0.4,0.7,1,0.7,1.7c0,0.7-0.2,1.3-0.6,1.7
			c-0.5,0.6-1.4,0.9-2.5,0.9c-0.3,0-0.6,0-0.8-0.1l0,3.2l-1,0L764.4,103.1z M765.5,107c0.2,0.1,0.5,0.1,0.9,0.1c1.3,0,2-0.6,2-1.8
			c0-1.1-0.8-1.6-1.9-1.6c-0.5,0-0.8,0-1,0.1L765.5,107z"/>
		<path fill="#BC8236" d="M770.6,111l0-0.6l0.8-0.8c2-1.9,2.8-2.9,2.8-4.1c0-0.8-0.4-1.5-1.6-1.5c-0.7,0-1.3,0.4-1.6,0.7l-0.3-0.7
			c0.5-0.5,1.3-0.8,2.2-0.8c1.7,0,2.4,1.1,2.4,2.2c0,1.4-1,2.6-2.6,4.2l-0.6,0.6v0l3.5-0.1l0,0.9L770.6,111z"/>
		<path fill="#BC8236" d="M776.4,112.4c0.3-0.7,0.6-2,0.7-2.9l1.2-0.1c-0.3,1-0.8,2.4-1.1,2.9L776.4,112.4z"/>
		<path fill="#BC8236" d="M782,102.8c0.5-0.1,1.2-0.2,2-0.2c1,0,1.8,0.2,2.3,0.6c0.4,0.4,0.7,1,0.7,1.7c0,0.7-0.2,1.3-0.6,1.7
			c-0.5,0.6-1.4,0.9-2.5,0.9c-0.3,0-0.6,0-0.8-0.1l0,3.2l-1,0L782,102.8z M783.1,106.7c0.2,0.1,0.5,0.1,0.9,0.1c1.3,0,2-0.6,2-1.8
			c0-1.1-0.8-1.6-1.9-1.6c-0.5,0-0.8,0-1,0.1L783.1,106.7z"/>
		<path fill="#BC8236" d="M788.4,109.5c0.3,0.2,1,0.5,1.7,0.5c1.4,0,1.8-0.9,1.7-1.5c0-1.1-1-1.5-2-1.5l-0.6,0l0-0.8l0.6,0
			c0.8,0,1.7-0.4,1.7-1.3c0-0.6-0.4-1.2-1.4-1.2c-0.6,0-1.2,0.3-1.6,0.5l-0.3-0.8c0.4-0.3,1.2-0.6,2-0.6c1.5,0,2.2,0.9,2.3,1.8
			c0,0.8-0.5,1.5-1.4,1.9v0c1,0.2,1.8,0.9,1.8,2c0,1.2-0.9,2.4-2.8,2.4c-0.9,0-1.6-0.3-2-0.5L788.4,109.5z"/>
	</g>
	<g>
		<path fill="#BC8236" d="M810.7,374.6c0.5,0.1,1.2,0.2,2,0.4c1,0.3,1.7,0.7,2,1.3c0.3,0.5,0.4,1.1,0.2,1.8
			c-0.2,0.7-0.6,1.2-1.1,1.5c-0.7,0.4-1.6,0.5-2.6,0.2c-0.3-0.1-0.6-0.2-0.8-0.3l-0.9,3.1l-1-0.3L810.7,374.6z M810.6,378.6
			c0.2,0.1,0.5,0.2,0.8,0.3c1.2,0.3,2.1,0,2.4-1.1c0.3-1-0.3-1.7-1.4-2c-0.4-0.1-0.8-0.2-1-0.2L810.6,378.6z"/>
		<path fill="#BC8236" d="M814.8,382.8c0.2,0.3,0.8,0.7,1.5,0.9c1.3,0.4,1.9-0.3,2.1-1c0.3-1.1-0.5-1.8-1.5-2.1l-0.6-0.2l0.2-0.8
			l0.6,0.2c0.7,0.2,1.8,0.1,2-0.8c0.2-0.6-0.1-1.2-1-1.5c-0.6-0.2-1.3-0.1-1.6,0.1l-0.1-0.8c0.5-0.2,1.3-0.2,2.1,0
			c1.5,0.4,1.9,1.5,1.6,2.4c-0.2,0.8-0.9,1.3-1.9,1.4l0,0c0.9,0.4,1.4,1.4,1.1,2.4c-0.3,1.2-1.6,2-3.4,1.5c-0.8-0.2-1.5-0.7-1.8-1.1
			L814.8,382.8z"/>
	</g>
</g>
<g id="Calque_2">
	<g>
		<g>
			
				<line fill="none" stroke="#B755FF" stroke-width="2" stroke-miterlimit="10" stroke-dasharray="5,5" x1="442.2" y1="152.5" x2="156.6" y2="151.6"/>
			<g>
				<polygon fill="#B755FF" points="440,149.5 441.2,152.5 440,155.5 447,152.5 				"/>
			</g>
		</g>
	</g>
	<g>
		<path fill="#B755FF" d="M286.7,139l-0.2-0.6l0.6-1c1.4-2.4,2-3.6,1.7-4.7c-0.2-0.8-0.8-1.4-1.9-1c-0.7,0.2-1.2,0.7-1.4,1.1
			l-0.5-0.6c0.4-0.6,1-1.1,1.9-1.4c1.6-0.5,2.6,0.5,2.9,1.5c0.4,1.4-0.3,2.8-1.5,4.8l-0.4,0.7l0,0l3.4-0.9l0.2,0.8L286.7,139z"/>
		<path fill="#B755FF" d="M295.2,129.5l-2.9,0.8l0.3,2c0.2-0.1,0.3-0.1,0.6-0.2c0.6-0.2,1.2-0.2,1.7,0c0.7,0.2,1.3,0.7,1.6,1.6
			c0.4,1.5-0.4,2.9-2.1,3.3c-0.8,0.2-1.6,0.2-2,0.1l0-0.8c0.4,0.1,1,0.2,1.7,0c1-0.3,1.6-1.1,1.3-2.1c-0.3-1-1.1-1.5-2.6-1.1
			c-0.4,0.1-0.7,0.3-1,0.4l-0.5-3.7l3.6-1L295.2,129.5z"/>
		<path fill="#B755FF" d="M297.7,131.5c-0.2-0.6-0.3-1-0.5-1.5l0.9-0.2l0.3,0.9l0,0c0.2-0.6,0.5-1.3,1.5-1.5
			c0.8-0.2,1.5,0.1,1.9,0.7l0,0c0.1-0.4,0.2-0.7,0.4-0.9c0.3-0.3,0.6-0.6,1.1-0.7c0.7-0.2,2,0,2.5,1.9l0.9,3.3l-1,0.3l-0.9-3.2
			c-0.3-1.1-0.9-1.6-1.7-1.4c-0.6,0.2-0.9,0.7-0.9,1.3c0,0.2,0,0.3,0.1,0.5l1,3.5l-1,0.3l-0.9-3.3c-0.2-0.9-0.8-1.4-1.6-1.2
			c-0.6,0.2-1,0.8-1,1.4c0,0.2,0,0.3,0.1,0.5l0.9,3.4l-1,0.3L297.7,131.5z"/>
		<path fill="#B755FF" d="M288.9,141l0.5,1.6l1.5-0.4l0.2,0.8l-1.5,0.4l0.8,3c0.2,0.7,0.5,1,1.1,0.9c0.3-0.1,0.5-0.2,0.6-0.2
			l0.3,0.7c-0.2,0.1-0.5,0.3-0.9,0.4c-0.5,0.1-0.9,0.1-1.2-0.1c-0.4-0.2-0.6-0.7-0.8-1.3l-0.9-3l-0.9,0.2l-0.2-0.8l0.9-0.2l-0.4-1.3
			L288.9,141z"/>
		<path fill="#B755FF" d="M292.5,143.6c-0.2-0.7-0.4-1.2-0.5-1.7l0.9-0.2l0.3,1.1l0,0c0-0.8,0.5-1.5,1.2-1.7c0.1,0,0.2,0,0.3,0
			l0.3,1c-0.1,0-0.2,0-0.4,0.1c-0.7,0.2-1.1,0.9-1,1.7c0,0.1,0,0.3,0.1,0.5l0.8,3l-1,0.3L292.5,143.6z"/>
		<path fill="#B755FF" d="M296.5,138.9c0.1,0.3-0.1,0.7-0.5,0.8c-0.4,0.1-0.7-0.1-0.8-0.5c-0.1-0.4,0.1-0.7,0.5-0.8
			C296.1,138.4,296.4,138.6,296.5,138.9z M297.4,146.4l-1.6-5.6l1-0.3l1.6,5.6L297.4,146.4z"/>
		<path fill="#B755FF" d="M299.7,144.5c0.3,0.1,1.1,0.2,1.8,0c1.3-0.4,1.5-1.3,1.3-1.9c-0.3-1-1.4-1.2-2.4-1l-0.6,0.2l-0.2-0.8
			l0.6-0.2c0.7-0.2,1.6-0.9,1.3-1.7c-0.2-0.6-0.7-1-1.6-0.8c-0.6,0.2-1.1,0.6-1.4,0.9l-0.5-0.7c0.3-0.4,1-0.9,1.8-1.1
			c1.5-0.4,2.4,0.3,2.7,1.2c0.2,0.8-0.1,1.6-0.9,2.2l0,0c1-0.1,1.9,0.4,2.2,1.5c0.3,1.2-0.3,2.5-2.1,3c-0.8,0.2-1.7,0.2-2.1,0
			L299.7,144.5z"/>
		<path fill="#B755FF" d="M305.7,144.1l-0.2-0.6l0.6-1c1.4-2.4,2-3.6,1.7-4.7c-0.2-0.8-0.8-1.4-1.9-1c-0.7,0.2-1.2,0.7-1.4,1.1
			l-0.5-0.6c0.4-0.6,1-1.1,1.9-1.4c1.6-0.5,2.6,0.5,2.9,1.5c0.4,1.4-0.3,2.8-1.5,4.8l-0.4,0.7l0,0l3.4-0.9l0.2,0.8L305.7,144.1z"/>
		<path fill="#B755FF" d="M312.5,139.5l-0.1,2.7l-1,0.3l0.5-8.5l1.2-0.3l4.8,7l-1.1,0.3l-1.5-2.2L312.5,139.5z M314.9,138l-1.4-2
			c-0.3-0.5-0.6-0.9-0.8-1.3l0,0c0,0.5,0,1,0,1.5l-0.1,2.5L314.9,138z"/>
	</g>
	<g>
		<g>
			
				<line fill="none" stroke="#B755FF" stroke-width="2" stroke-miterlimit="10" stroke-dasharray="5,5" x1="441.1" y1="162.8" x2="126.4" y2="163.5"/>
			<g>
				<polygon fill="#B755FF" points="438.9,159.8 440.1,162.8 438.9,165.8 445.9,162.8 				"/>
			</g>
		</g>
	</g>
	<g>
		
			<rect x="143.9" y="143.6" transform="matrix(-2.890351e-03 -1 1 -2.890351e-03 -1.7004 300.3868)" fill="none" stroke="#B755FF" stroke-width="0.96" stroke-miterlimit="10" width="10" height="14.8"/>
		<g>
			<path fill="#B755FF" d="M145.7,153.3c-0.1-0.5-0.1-1-0.1-1.6c0-1.1,0.2-1.8,0.7-2.4c0.5-0.5,1.1-0.8,2.1-0.8c1,0,1.7,0.3,2.3,0.8
				c0.5,0.5,0.8,1.4,0.8,2.6c0,0.5,0,1-0.1,1.4L145.7,153.3z M150.8,152.5c0-0.2,0-0.5,0-0.8c0-1.6-0.9-2.5-2.5-2.5
				c-1.4,0-2.2,0.8-2.2,2.4c0,0.4,0,0.7,0.1,0.9L150.8,152.5z"/>
		</g>
	</g>
	<g>
		<g>
			
				<line fill="none" stroke="#B755FF" stroke-width="2" stroke-miterlimit="10" stroke-dasharray="5,5" x1="147" y1="45.6" x2="127.2" y2="143.1"/>
			<g>
				<polygon fill="#B755FF" points="143.6,47.2 146.8,46.5 149.4,48.4 147.9,40.9 				"/>
			</g>
		</g>
	</g>
	<g>
		<path fill="#B755FF" d="M141.3,97.8L141.3,97.8l-1.1,1.1l-0.4-0.7l1.4-1.3l0.9-0.2l2.1,7.5l-1,0.3L141.3,97.8z"/>
		<path fill="#B755FF" d="M150.8,98.1c0.7,2.6,0.2,4.2-1.5,4.7c-1.5,0.4-2.8-0.7-3.6-3.2c-0.7-2.5,0-4.2,1.5-4.6
			C148.9,94.5,150.1,95.7,150.8,98.1z M146.8,99.3c0.5,2,1.5,2.9,2.4,2.6c1-0.3,1.2-1.6,0.7-3.6c-0.5-1.8-1.3-2.9-2.4-2.6
			C146.5,96,146.2,97.3,146.8,99.3z"/>
		<path fill="#B755FF" d="M152,97.5c-0.2-0.6-0.3-1-0.5-1.5l0.9-0.2l0.3,0.9l0,0c0.2-0.6,0.5-1.3,1.5-1.5c0.8-0.2,1.5,0.1,1.9,0.7
			l0,0c0.1-0.4,0.2-0.7,0.4-0.9c0.3-0.3,0.6-0.6,1.1-0.7c0.7-0.2,2,0,2.5,1.9l0.9,3.3l-1,0.3l-0.9-3.2c-0.3-1.1-0.9-1.6-1.7-1.4
			c-0.6,0.2-0.9,0.7-0.9,1.3c0,0.2,0,0.3,0.1,0.5l1,3.5l-1,0.3l-0.9-3.3c-0.2-0.9-0.8-1.4-1.6-1.2c-0.6,0.2-1,0.8-1,1.4
			c0,0.2,0,0.3,0.1,0.5l0.9,3.4l-1,0.3L152,97.5z"/>
		<path fill="#B755FF" d="M143.2,107l0.5,1.6l1.5-0.4l0.2,0.8l-1.5,0.4l0.8,3c0.2,0.7,0.5,1,1.1,0.9c0.3-0.1,0.5-0.2,0.6-0.2
			l0.3,0.7c-0.2,0.1-0.5,0.3-0.9,0.4c-0.5,0.1-0.9,0.1-1.2-0.1c-0.4-0.2-0.6-0.7-0.8-1.3l-0.9-3l-0.9,0.2l-0.2-0.8l0.9-0.2l-0.4-1.3
			L143.2,107z"/>
		<path fill="#B755FF" d="M146.8,109.6c-0.2-0.7-0.4-1.2-0.5-1.7l0.9-0.2l0.3,1.1l0,0c0-0.8,0.5-1.5,1.2-1.7c0.1,0,0.2,0,0.3,0
			l0.3,1c-0.1,0-0.2,0-0.4,0.1c-0.7,0.2-1.1,0.9-1,1.7c0,0.1,0,0.3,0.1,0.5l0.8,3l-1,0.3L146.8,109.6z"/>
		<path fill="#B755FF" d="M150.8,104.9c0.1,0.3-0.1,0.7-0.5,0.8c-0.4,0.1-0.7-0.1-0.8-0.5c-0.1-0.4,0.1-0.7,0.5-0.8
			C150.4,104.3,150.7,104.5,150.8,104.9z M151.7,112.4l-1.6-5.6l1-0.3l1.6,5.6L151.7,112.4z"/>
		<path fill="#B755FF" d="M154,110.5c0.3,0.1,1.1,0.2,1.8,0c1.3-0.4,1.5-1.3,1.3-1.9c-0.3-1-1.4-1.2-2.4-1l-0.6,0.2l-0.2-0.8
			l0.6-0.2c0.7-0.2,1.6-0.9,1.3-1.7c-0.2-0.6-0.7-1-1.6-0.8c-0.6,0.2-1.1,0.6-1.4,0.9l-0.5-0.7c0.3-0.4,1-0.9,1.8-1.1
			c1.5-0.4,2.4,0.3,2.7,1.2c0.2,0.8-0.1,1.6-0.9,2.2l0,0c1-0.1,1.9,0.4,2.2,1.5c0.3,1.2-0.3,2.5-2.1,3c-0.8,0.2-1.7,0.2-2.1,0
			L154,110.5z"/>
		<path fill="#B755FF" d="M160,110l-0.2-0.6l0.6-1c1.4-2.4,2-3.6,1.7-4.7c-0.2-0.8-0.8-1.4-1.9-1c-0.7,0.2-1.1,0.7-1.4,1.1l-0.5-0.6
			c0.4-0.6,1-1.1,1.9-1.4c1.6-0.5,2.6,0.5,2.9,1.5c0.4,1.4-0.3,2.8-1.5,4.8l-0.4,0.7l0,0l3.4-0.9l0.2,0.8L160,110z"/>
		<path fill="#B755FF" d="M166.8,105.5l-0.1,2.7l-1,0.3l0.5-8.5l1.2-0.3l4.8,7l-1.1,0.3l-1.5-2.2L166.8,105.5z M169.2,104l-1.4-2
			c-0.3-0.5-0.6-0.9-0.8-1.3l0,0c0,0.5,0,1,0,1.5l-0.1,2.5L169.2,104z"/>
	</g>
	<g>
		<g>
			
				<line fill="none" stroke="#B755FF" stroke-width="2" stroke-miterlimit="10" stroke-dasharray="5,5" x1="725.2" y1="161.5" x2="447.5" y2="162.8"/>
			<g>
				<polygon fill="#B755FF" points="722.9,158.5 724.2,161.5 723,164.4 730,161.4 				"/>
			</g>
		</g>
	</g>
	<g>
		<g>
			
				<line fill="none" stroke="#B755FF" stroke-width="2" stroke-miterlimit="10" stroke-dasharray="5,5" x1="693.7" y1="153.3" x2="446.9" y2="152.5"/>
			<g>
				<polygon fill="#B755FF" points="691.4,150.4 692.7,153.3 691.4,156.3 698.5,153.3 				"/>
			</g>
		</g>
	</g>
	<g>
		
			<rect x="847.4" y="151.9" transform="matrix(-2.890351e-03 -1 1 -2.890351e-03 694.9056 1015.2584)" fill="none" stroke="#B755FF" stroke-width="1.2" stroke-miterlimit="10" width="12.5" height="18.5"/>
		<g>
			<path fill="#B755FF" d="M849.6,164c-0.1-0.6-0.2-1.3-0.2-2c0-1.4,0.3-2.3,0.9-3c0.6-0.7,1.4-1,2.6-1c1.2,0,2.2,0.4,2.8,1
				c0.7,0.7,1.1,1.8,1.1,3.2c0,0.7,0,1.2-0.1,1.7L849.6,164z M856,163c0-0.2,0.1-0.6,0.1-1c0-2-1.1-3.1-3.1-3.1c-1.7,0-2.8,1-2.8,3
				c0,0.5,0,0.9,0.1,1.1L856,163z"/>
		</g>
	</g>
	<g>
		
			<rect x="701.5" y="144.7" transform="matrix(-2.890351e-03 -1 1 -2.890351e-03 556.4461 858.9725)" fill="none" stroke="#B755FF" stroke-width="0.96" stroke-miterlimit="10" width="10" height="14.8"/>
		<g>
			<path fill="#B755FF" d="M703.3,154.3c-0.1-0.5-0.1-1-0.1-1.6c0-1.1,0.2-1.8,0.7-2.4c0.5-0.5,1.1-0.8,2.1-0.8c1,0,1.7,0.3,2.3,0.8
				c0.5,0.5,0.8,1.4,0.8,2.6c0,0.5,0,1-0.1,1.4L703.3,154.3z M708.4,153.6c0-0.2,0-0.5,0-0.8c0-1.6-0.9-2.5-2.5-2.5
				c-1.4,0-2.2,0.8-2.2,2.4c0,0.4,0,0.7,0.1,0.9L708.4,153.6z"/>
		</g>
	</g>
	<g>
		<g>
			
				<line fill="none" stroke="#B755FF" stroke-width="2" stroke-miterlimit="10" stroke-dasharray="5,5" x1="839.4" y1="160.9" x2="730" y2="161.4"/>
			<g>
				<polygon fill="#B755FF" points="837.1,158 838.4,160.9 837.2,163.9 844.2,160.9 				"/>
			</g>
		</g>
	</g>
	<g>
		<g>
			
				<line fill="none" stroke="#B755FF" stroke-width="2" stroke-miterlimit="10" stroke-dasharray="5,5" x1="676.8" y1="136.3" x2="709.3" y2="146.7"/>
			<g>
				<polygon fill="#B755FF" points="678.1,139.8 677.8,136.6 679.9,134.1 672.3,134.8 				"/>
			</g>
		</g>
	</g>
	
		<line fill="none" stroke="#B755FF" stroke-width="2" stroke-miterlimit="10" stroke-dasharray="5" x1="124.2" y1="151.6" x2="126.4" y2="163.5"/>
	
		<line fill="none" stroke="#B755FF" stroke-width="2" stroke-miterlimit="10" stroke-dasharray="5" x1="131.2" y1="147.4" x2="141.5" y2="152.1"/>
	<g>
		<path fill="#B755FF" d="M811,149.2l1-0.3l1.9,6.9l3.3-0.9l0.2,0.8l-4.3,1.2L811,149.2z"/>
		<path fill="#B755FF" d="M817.8,148c0.1,0.3-0.1,0.7-0.5,0.8c-0.4,0.1-0.7-0.1-0.8-0.5c-0.1-0.4,0.1-0.7,0.5-0.8
			C817.4,147.4,817.7,147.6,817.8,148z M818.7,155.4l-1.6-5.6l1-0.3l1.6,5.6L818.7,155.4z"/>
		<path fill="#B755FF" d="M824.6,147.7c0.1,0.4,0.2,0.9,0.4,1.5l0.9,3.2c0.4,1.3,0.3,2.1-0.1,2.8c-0.4,0.7-1.1,1-1.8,1.2
			c-0.7,0.2-1.5,0.2-2,0.1l0-0.8c0.4,0.1,1.1,0.2,1.8,0c1-0.3,1.6-1,1.3-2.5l-0.2-0.6l0,0c-0.2,0.6-0.7,1.2-1.5,1.4
			c-1.4,0.4-2.7-0.5-3.1-2.1c-0.5-1.9,0.4-3.3,1.7-3.7c1-0.3,1.6,0.1,2,0.5l0,0l-0.2-0.9L824.6,147.7z M824.2,150.2
			c0-0.2-0.1-0.3-0.2-0.4c-0.4-0.5-1-0.9-1.7-0.7c-1,0.3-1.4,1.3-1.1,2.6c0.3,1.1,1.1,1.9,2.2,1.5c0.6-0.2,1.1-0.7,1.1-1.4
			c0-0.2,0-0.4-0.1-0.6L824.2,150.2z"/>
		<path fill="#B755FF" d="M826.6,148.8c-0.2-0.6-0.3-1-0.5-1.5l0.9-0.3l0.3,0.9l0,0c0.1-0.6,0.6-1.3,1.6-1.6
			c0.8-0.2,2.1-0.1,2.6,1.8l0.9,3.3l-1,0.3l-0.9-3.2c-0.3-0.9-0.8-1.6-1.8-1.3c-0.7,0.2-1.1,0.8-1.1,1.4c0,0.1,0,0.3,0.1,0.5
			l0.9,3.4l-1,0.3L826.6,148.8z"/>
		<path fill="#B755FF" d="M834,148.3c0.4,1.4,1.4,1.7,2.5,1.4c0.7-0.2,1.1-0.5,1.5-0.7l0.4,0.7c-0.3,0.3-0.9,0.6-1.8,0.9
			c-1.7,0.5-3.1-0.4-3.5-2c-0.5-1.7,0.1-3.3,1.8-3.7c1.8-0.5,2.8,1,3,2c0.1,0.2,0.1,0.4,0.1,0.5L834,148.3z M836.8,146.8
			c-0.2-0.7-0.7-1.6-1.9-1.3c-1,0.3-1.2,1.4-1.1,2.1L836.8,146.8z"/>
		<path fill="#B755FF" d="M842.4,141.7L842.4,141.7l-1.1,1.1l-0.4-0.7l1.4-1.3l0.9-0.2l2.1,7.5l-1,0.3L842.4,141.7z"/>
		<path fill="#B755FF" d="M812.8,158.6l-0.2-0.6l35.1-9.9l0.2,0.6L812.8,158.6z"/>
	</g>
	<g>
		<path fill="#B755FF" d="M98.2,90.6l1-0.3l1.9,6.9l3.3-0.9l0.2,0.8l-4.3,1.2L98.2,90.6z"/>
		<path fill="#B755FF" d="M104.9,89.4c0.1,0.3-0.1,0.7-0.5,0.8c-0.4,0.1-0.7-0.1-0.8-0.5c-0.1-0.4,0.1-0.7,0.5-0.8
			C104.5,88.8,104.8,89.1,104.9,89.4z M105.8,96.9l-1.6-5.6l1-0.3l1.6,5.6L105.8,96.9z"/>
		<path fill="#B755FF" d="M111.7,89.2c0.1,0.4,0.2,0.9,0.4,1.5L113,94c0.4,1.3,0.3,2.1-0.1,2.8c-0.4,0.7-1.1,1-1.8,1.2
			c-0.7,0.2-1.5,0.2-2,0.1l0-0.8c0.4,0.1,1.1,0.2,1.8,0c1-0.3,1.6-1,1.3-2.5l-0.2-0.6l0,0c-0.2,0.6-0.7,1.2-1.5,1.4
			c-1.4,0.4-2.7-0.5-3.1-2.1c-0.5-1.9,0.4-3.3,1.7-3.7c1-0.3,1.6,0.1,2,0.5l0,0l-0.2-0.9L111.7,89.2z M111.3,91.7
			c0-0.2-0.1-0.3-0.2-0.4c-0.4-0.5-1-0.9-1.7-0.7c-1,0.3-1.4,1.3-1.1,2.6c0.3,1.1,1.1,1.9,2.2,1.5c0.6-0.2,1.1-0.7,1.1-1.4
			c0-0.2,0-0.4-0.1-0.6L111.3,91.7z"/>
		<path fill="#B755FF" d="M113.7,90.3c-0.2-0.6-0.3-1-0.5-1.5l0.9-0.3l0.3,0.9l0,0c0.1-0.6,0.6-1.3,1.6-1.6c0.8-0.2,2.1-0.1,2.6,1.8
			l0.9,3.3l-1,0.3l-0.9-3.2c-0.3-0.9-0.8-1.6-1.8-1.3c-0.7,0.2-1.1,0.8-1.1,1.4c0,0.1,0,0.3,0.1,0.5l0.9,3.4l-1,0.3L113.7,90.3z"/>
		<path fill="#B755FF" d="M121.1,89.8c0.4,1.4,1.4,1.7,2.5,1.4c0.7-0.2,1.1-0.5,1.5-0.7l0.4,0.7c-0.3,0.3-0.9,0.6-1.8,0.9
			c-1.7,0.5-3.1-0.4-3.5-2s0.1-3.3,1.8-3.7c1.8-0.5,2.8,1,3,2c0.1,0.2,0.1,0.4,0.1,0.5L121.1,89.8z M123.9,88.2
			c-0.2-0.7-0.7-1.6-1.9-1.3c-1,0.3-1.2,1.4-1.1,2.1L123.9,88.2z"/>
		<path fill="#B755FF" d="M129.6,83.1L129.6,83.1l-1.1,1.1l-0.4-0.7l1.4-1.3l0.9-0.2l2.1,7.5l-1,0.3L129.6,83.1z"/>
		<path fill="#B755FF" d="M99.9,100.1l-0.2-0.6l35.1-9.9l0.2,0.6L99.9,100.1z"/>
	</g>
	<g>
		<path fill="#B755FF" d="M623.7,141.4l1-0.3l1.9,6.9l3.3-0.9l0.2,0.8l-4.3,1.2L623.7,141.4z"/>
		<path fill="#B755FF" d="M630.4,140.1c0.1,0.3-0.1,0.7-0.5,0.8c-0.4,0.1-0.7-0.1-0.8-0.5c-0.1-0.4,0.1-0.7,0.5-0.8
			C630,139.6,630.3,139.8,630.4,140.1z M631.3,147.6l-1.6-5.6l1-0.3l1.6,5.6L631.3,147.6z"/>
		<path fill="#B755FF" d="M637.3,139.9c0.1,0.4,0.2,0.9,0.4,1.5l0.9,3.2c0.4,1.3,0.3,2.1-0.1,2.8c-0.4,0.7-1.1,1-1.8,1.2
			c-0.7,0.2-1.5,0.2-2,0.1l0-0.8c0.4,0.1,1.1,0.2,1.8,0c1-0.3,1.6-1,1.3-2.5l-0.2-0.6l0,0c-0.2,0.6-0.7,1.2-1.5,1.4
			c-1.4,0.4-2.7-0.5-3.1-2.1c-0.5-1.9,0.4-3.3,1.7-3.7c1-0.3,1.6,0.1,2,0.5l0,0l-0.2-0.9L637.3,139.9z M636.8,142.4
			c0-0.2-0.1-0.3-0.2-0.4c-0.4-0.5-1-0.9-1.7-0.7c-1,0.3-1.4,1.3-1.1,2.6c0.3,1.1,1.1,1.9,2.2,1.5c0.6-0.2,1.1-0.7,1.1-1.4
			c0-0.2,0-0.4-0.1-0.6L636.8,142.4z"/>
		<path fill="#B755FF" d="M639.3,141c-0.2-0.6-0.3-1-0.5-1.5l0.9-0.3l0.3,0.9l0,0c0.1-0.6,0.6-1.3,1.6-1.6c0.8-0.2,2.1-0.1,2.6,1.8
			l0.9,3.3l-1,0.3l-0.9-3.2c-0.3-0.9-0.8-1.6-1.8-1.3c-0.7,0.2-1.1,0.8-1.1,1.4c0,0.1,0,0.3,0.1,0.5l0.9,3.4l-1,0.3L639.3,141z"/>
		<path fill="#B755FF" d="M646.6,140.5c0.4,1.4,1.4,1.7,2.5,1.4c0.7-0.2,1.1-0.5,1.5-0.7l0.4,0.7c-0.3,0.3-0.9,0.6-1.8,0.9
			c-1.7,0.5-3.1-0.4-3.5-2s0.1-3.3,1.8-3.7c1.8-0.5,2.8,1,3,2c0.1,0.2,0.1,0.4,0.1,0.5L646.6,140.5z M649.4,138.9
			c-0.2-0.7-0.7-1.6-1.9-1.3c-1,0.3-1.2,1.4-1.1,2.1L649.4,138.9z"/>
		<path fill="#B755FF" d="M654.7,141l-0.2-0.6l0.6-1c1.4-2.4,2-3.6,1.7-4.7c-0.2-0.8-0.8-1.4-1.9-1c-0.7,0.2-1.2,0.7-1.4,1.1
			l-0.5-0.6c0.4-0.6,1-1.1,1.9-1.4c1.6-0.5,2.6,0.5,2.9,1.5c0.4,1.4-0.3,2.8-1.5,4.8l-0.4,0.7l0,0l3.4-0.9l0.2,0.8L654.7,141z"/>
		<path fill="#B755FF" d="M625.4,150.8l-0.2-0.6l35.1-9.9l0.2,0.6L625.4,150.8z"/>
	</g>
	<g>
	</g>
	<g>
	</g>
	<g>
	</g>
</g>
</svg>
